<?xml version="1.0" encoding="UTF-8"?><svg version="1.1" xmlns="http://www.w3.org/2000/svg" xmlns:xlink="http://www.w3.org/1999/xlink" viewBox="0 0 1600 1200" width="1600" height="1200" x="0px" y="0px">
    
    
    <!-- ITEM 0 -->
    <g>
        <defs>
            <clipPath id="clip-path-id-crop-item-0">
                
          <rect transform="scale(0.31189825581395353 0.3150660792951542)" x="-12.0" y="139.0" width="147.0" height="88.0"/>
        
            </clipPath>
            
            <clipPath id="clip-path-id-viewbox-item-0">
                <rect x="-238.514" y="640.921" width="107.293" height="71.52"/>
            </clipPath>
        </defs>
        <g clip-path="url(#clip-path-id-crop-item-0)" transform="translate(1157.0 421.0) rotate(0.0 -172.0 113.5) scale(-3.2061737485204067 3.173937360178971)">
            <g clip-path="url(#clip-path-id-viewbox-item-0)" transform="translate(238.514 -640.921)">
                
<rect x="-238.514" y="702.312" fill="#151A4F" width="69.343" height="10.129"/>
<polygon fill="#23286B" points="-131.221,640.921 -172.104,640.921 -191.972,712.441 -151.089,712.441 "/>

            </g>
        </g>
    </g>
    
    <!-- ITEM 1 -->
    <g>
        <defs>
            <clipPath id="clip-path-id-viewbox-item-1">
                <rect x="0.0" y="0.0" width="214.0" height="372.0"/>
            </clipPath>
        </defs>
        <g transform="translate(1515.0 507.0) rotate(0.0 -178.5 311.5) scale(-1.6682242990654206 1.674731182795699)">
            <g clip-path="url(#clip-path-id-viewbox-item-1)" transform="translate(-0.0 -0.0)">
                
<g>
	
		<linearGradient id="wheel_3_1_-i1" gradientUnits="userSpaceOnUse" x1="3845.3201" y1="8969.1982" x2="2455.0232" y2="10940.25" gradientTransform="matrix(0.0178 0 0 0.0178 98.2222 188.9022)">
		<stop offset="0.0898" style="stop-color:#EEEEEE"/>
		<stop offset="0.8178" style="stop-color:#D6D7D8"/>
	</linearGradient>
	<circle id="wheel_3-i1" fill="url(#wheel_3_1_-i1)" cx="159.695" cy="358.12" r="13.876"/>
	
		<linearGradient id="chair_seat_1_-i1" gradientUnits="userSpaceOnUse" x1="7166.9385" y1="-1395.4995" x2="1579.5626" y2="-796.85" gradientTransform="matrix(0.0178 0 0 0.0178 98.2222 188.9022)">
		<stop offset="0.14" style="stop-color:#E94A47"/>
		<stop offset="1" style="stop-color:#C63030"/>
	</linearGradient>
	<rect id="chair_seat-i1" x="31.339" y="158.247" fill="url(#chair_seat_1_-i1)" width="182.661" height="33.757"/>
	
		<linearGradient id="chair_bottom_1_1_-i1" gradientUnits="userSpaceOnUse" x1="1267.5669" y1="1223.2161" x2="1458.7025" y2="-751.934" gradientTransform="matrix(0.0178 0 0 0.0178 98.2222 188.9022)">
		<stop offset="0" style="stop-color:#23286B"/>
		<stop offset="1" style="stop-color:#151A4F"/>
	</linearGradient>
	<path id="chair_bottom_1-i1" fill="url(#chair_bottom_1_1_-i1)" d="M89.379,192.004h66.313l0,0l0,0c0,5.871-4.803,10.541-10.541,10.541   h-45.098C94.049,202.545,89.379,197.875,89.379,192.004L89.379,192.004L89.379,192.004z"/>
	
		<linearGradient id="chair_bottom_2_1_-i1" gradientUnits="userSpaceOnUse" x1="-1774.4059" y1="-171.9043" x2="1984.7495" y2="1946.5952" gradientTransform="matrix(0.0178 0 0 0.0178 98.2222 188.9022)">
		<stop offset="0" style="stop-color:#23286B"/>
		<stop offset="1" style="stop-color:#151A4F"/>
	</linearGradient>
	<rect id="chair_bottom_2-i1" x="114.33" y="202.411" fill="url(#chair_bottom_2_1_-i1)" width="16.278" height="29.754"/>
	
		<linearGradient id="chair_bottom_3_1_-i1" gradientUnits="userSpaceOnUse" x1="1394.5601" y1="4361.2573" x2="1237.8496" y2="9752.2109" gradientTransform="matrix(0.0178 0 0 0.0178 98.2222 188.9022)">
		<stop offset="0" style="stop-color:#23286B"/>
		<stop offset="1" style="stop-color:#151A4F"/>
	</linearGradient>
	<path id="chair_bottom_3-i1" fill="url(#chair_bottom_3_1_-i1)" d="M120.735,228.963h3.603c5.871,0,10.674,4.803,10.674,10.674v86.994   l0,0h-24.951l0,0v-86.994C109.927,233.766,114.731,228.963,120.735,228.963z"/>
	
		<linearGradient id="leg_4_1_-i1" gradientUnits="userSpaceOnUse" x1="3770.3982" y1="8052.0967" x2="1153.2808" y2="7284.2041" gradientTransform="matrix(0.0178 0 0 0.0178 98.2222 188.9022)">
		<stop offset="0" style="stop-color:#23286B"/>
		<stop offset="1" style="stop-color:#151A4F"/>
	</linearGradient>
	<path id="leg_4-i1" fill="url(#leg_4_1_-i1)" d="M122.603,326.631h61.376c7.605,0,13.61,6.138,13.61,13.61v4.403h-4.403v-0.934v-1.868   c0-6.004-4.803-10.808-10.808-10.808l0,0h-59.775L122.603,326.631z"/>
	<path id="leg_3-i1" fill="#23286B" d="M122.603,326.631h25.885c7.605,0,13.61,6.138,13.61,13.61v4.403h-4.403v-0.934v-1.868   c0-6.004-4.803-10.808-10.808-10.808l0,0h-24.284V326.631z"/>
	
		<linearGradient id="leg_1_1_-i1" gradientUnits="userSpaceOnUse" x1="-3130.1257" y1="6079.877" x2="-1030.1648" y2="7976.1084" gradientTransform="matrix(0.0178 0 0 0.0178 98.2222 188.9022)">
		<stop offset="0" style="stop-color:#23286B"/>
		<stop offset="1" style="stop-color:#151A4F"/>
	</linearGradient>
	<path id="leg_1-i1" fill="url(#leg_1_1_-i1)" d="M122.87,326.631H61.493c-7.605,0-13.61,6.138-13.61,13.61v4.403h4.403v-0.934v-1.868   c0-6.004,4.803-10.808,10.808-10.808l0,0h59.775L122.87,326.631z"/>
	<path id="leg_2-i1" fill="#23286B" d="M122.87,326.631H96.985c-7.605,0-13.61,6.138-13.61,13.61v4.403h4.403v-0.934v-1.868   c0-6.004,4.803-10.808,10.808-10.808l0,0h24.284V326.631z"/>
	
		<linearGradient id="wheel_2_1_-i1" gradientUnits="userSpaceOnUse" x1="-234.7086" y1="9132.1367" x2="-2663.3267" y2="11085.5889" gradientTransform="matrix(0.0178 0 0 0.0178 98.2222 188.9022)">
		<stop offset="0.0898" style="stop-color:#EEEEEE"/>
		<stop offset="0.8178" style="stop-color:#D6D7D8"/>
	</linearGradient>
	<circle id="wheel_2-i1" fill="url(#wheel_2_1_-i1)" cx="85.51" cy="358.12" r="13.876"/>
	
		<linearGradient id="wheel_4_1_-i1" gradientUnits="userSpaceOnUse" x1="6100.9658" y1="8845.0889" x2="4235.5049" y2="10833.748" gradientTransform="matrix(0.0178 0 0 0.0178 98.2222 188.9022)">
		<stop offset="0.0898" style="stop-color:#EEEEEE"/>
		<stop offset="0.8178" style="stop-color:#D6D7D8"/>
	</linearGradient>
	<circle id="wheel_4-i1" fill="url(#wheel_4_1_-i1)" cx="195.454" cy="358.12" r="13.876"/>
	
		<linearGradient id="wheel_1_1_-i1" gradientUnits="userSpaceOnUse" x1="-2203.6692" y1="8805.1846" x2="-3681.9573" y2="10881.835" gradientTransform="matrix(0.0178 0 0 0.0178 98.2222 188.9022)">
		<stop offset="0.0898" style="stop-color:#EEEEEE"/>
		<stop offset="0.8178" style="stop-color:#D6D7D8"/>
	</linearGradient>
	<circle id="wheel_1-i1" fill="url(#wheel_1_1_-i1)" cx="50.019" cy="358.12" r="13.876"/>
	
		<linearGradient id="chair_back_1_-i1" gradientUnits="userSpaceOnUse" x1="554.8203" y1="-8350.1348" x2="-5185.3027" y2="3563.3252" gradientTransform="matrix(0.0178 0 0 0.0178 98.2222 188.9022)">
		<stop offset="0.14" style="stop-color:#E94A47"/>
		<stop offset="1" style="stop-color:#C63030"/>
	</linearGradient>
	<path id="chair_back-i1" fill="url(#chair_back_1_-i1)" d="M154.225,192.004H31.339L0.384,26.822C-1.884,14.546,6.121,2.671,18.53,0.403   c1.334-0.267,2.802-0.4,4.136-0.4h76.72c10.941,0,20.281,7.739,22.282,18.413L154.225,192.004z"/>
</g>

            </g>
        </g>
    </g>
    
    <!-- ITEM 2 -->
    <g>
        <defs>
            <clipPath id="clip-path-id-crop-item-2">
                
          <rect transform="scale(0.31189825581395353 0.3150660792951542)" x="-12.0" y="89.0" width="356.0" height="137.0"/>
        
            </clipPath>
            
            <clipPath id="clip-path-id-viewbox-item-2">
                <rect x="-238.514" y="640.921" width="107.293" height="71.52"/>
            </clipPath>
        </defs>
        <g clip-path="url(#clip-path-id-crop-item-2)" transform="translate(1103.0 421.0) rotate(0.0 -172.0 113.5) scale(-3.2061737485204067 3.173937360178971)">
            <g clip-path="url(#clip-path-id-viewbox-item-2)" transform="translate(238.514 -640.921)">
                
<rect x="-238.514" y="702.312" fill="#151A4F" width="69.343" height="10.129"/>
<polygon fill="#23286B" points="-131.221,640.921 -172.104,640.921 -191.972,712.441 -151.089,712.441 "/>

            </g>
        </g>
    </g>
    
    <!-- ITEM 3 -->
    <g>
        <defs>
            <clipPath id="clip-path-id-crop-item-3">
                
          <rect transform="scale(0.4282733564013841 0.42798056801195816)" x="-1.0" y="0.0" width="579.0" height="490.0"/>
        
            </clipPath>
            
            <clipPath id="clip-path-id-viewbox-item-3">
                <rect x="0.0" y="0.0" width="247.542" height="286.319"/>
            </clipPath>
        </defs>
        <g clip-path="url(#clip-path-id-crop-item-3)" transform="translate(1184.0 635.0) rotate(0.0 -289.0 334.5) scale(-2.334957300175324 2.336554682015514)">
            <g clip-path="url(#clip-path-id-viewbox-item-3)" transform="translate(-0.0 -0.0)">
                
<g>
	<polygon fill="#D6D7D8" points="247.542,286.319 237.542,286.319 237.542,10 0,10 0,0 247.542,0  "/>
</g>

            </g>
        </g>
    </g>
    
    <!-- ITEM 4 -->
    <g>
        <defs>
            <clipPath id="clip-path-id-viewbox-item-4">
                <rect x="0.0" y="0.0" width="235.0" height="267.0"/>
            </clipPath>
        </defs>
        <g transform="translate(433.0 342.0) rotate(0.0 129.5 147.5) scale(1.102127659574468 1.104868913857678)">
            <g clip-path="url(#clip-path-id-viewbox-item-4)" transform="translate(-0.0 -0.0)">
                
<g id="books-i4">
	
		<linearGradient id="_3_1_-i4" gradientUnits="userSpaceOnUse" x1="635.7561" y1="4626.0767" x2="12260.9912" y2="4626.0767" gradientTransform="matrix(0.0178 0 0 0.0178 0 13.0844)">
		<stop offset="0" style="stop-color:#a1c3fc"/>
		<stop offset="1" style="stop-color:#93b5e0"/>
	</linearGradient>
	<path id="_3-i4" fill="url(#_3_1_-i4)" d="M217.973,95.399c0,10.551-8.513,19.05-19.082,19.05c-0.147,0-0.147,0-0.294,0l0,0H11.302   v-7.767h187.883l0,0c6.312-0.293,11.155-5.569,10.862-11.723c-0.294-6.008-5.284-10.844-11.302-10.844c-0.147,0-0.294,0-0.44,0   H11.302v-7.913h187.442l0,0h0.147C209.46,76.349,217.973,84.848,217.973,95.399z"/>
	
		<linearGradient id="_7_1_-i4" gradientUnits="userSpaceOnUse" x1="12603.6172" y1="13412.5215" x2="-1115.4821" y2="12971.1621" gradientTransform="matrix(0.0178 0 0 0.0178 0 13.0844)">
		<stop offset="0" style="stop-color:#a1c3fc"/>
		<stop offset="1" style="stop-color:#93b5e0"/>
	</linearGradient>
	<path id="_7-i4" fill="url(#_7_1_-i4)" d="M7.926,247.95c0,6.008,4.844,10.991,10.862,11.284l0,0h187.883V267H19.229l0,0h-0.147   C8.513,267,0,258.501,0,247.95c0-10.551,8.513-19.05,19.082-19.05l0,0h187.736v7.767H19.816c-0.147,0-0.294,0-0.44,0   C13.064,236.519,7.926,241.648,7.926,247.95z"/>
	
		<linearGradient id="_5_1_-i4" gradientUnits="userSpaceOnUse" x1="30562.2109" y1="16081.6885" x2="-5064.9688" y2="4873.1367" gradientTransform="matrix(0.0178 0 0 0.0178 0 13.0844)">
		<stop offset="0" style="stop-color:#A1C3FC"/>
		<stop offset="0.6955" style="stop-color:#81AEF2"/>
		<stop offset="1" style="stop-color:#78A9EF"/>
	</linearGradient>
	<path id="_5-i4" fill="url(#_5_1_-i4)" d="M35.962,171.894c0,6.008,4.844,10.991,10.862,11.284l0,0h186.855v7.62H46.237l0,0   c-10.568-0.147-19.082-8.793-18.935-19.344c0.147-10.405,8.513-18.757,18.935-18.904l0,0h187.589v8.06H47.851   c-0.147,0-0.294,0-0.44,0C41.099,160.61,35.962,165.593,35.962,171.894z"/>
	
		<linearGradient id="_4_1_-i4" gradientUnits="userSpaceOnUse" x1="11059.2021" y1="9050.2168" x2="-6681.6182" y2="-182.248" gradientTransform="matrix(0.0178 0 0 0.0178 0 13.0844)">
		<stop offset="0" style="stop-color:#A1C3FC"/>
		<stop offset="0.6955" style="stop-color:#81AEF2"/>
		<stop offset="1" style="stop-color:#78A9EF"/>
	</linearGradient>
	<path id="_4-i4" fill="url(#_4_1_-i4)" d="M109.647,132.621c0,0.293,0,0.586,0,0.733c0,6.008,4.844,10.991,10.862,11.284l0,0h0.44l0,0   l0,0h93.648v7.767H27.008c-10.568,0-19.082-8.646-19.082-19.197s8.513-19.05,19.082-19.05H214.45v7.767h-93.207   c-0.147,0-0.294,0-0.44,0c-0.294,0-0.44,0-0.734,0c-5.284,0.293-9.541,4.396-10.422,9.525   C109.647,132.035,109.647,132.328,109.647,132.621z"/>
	
		<linearGradient id="_1_1_-i4" gradientUnits="userSpaceOnUse" x1="652.2677" y1="339.7119" x2="11633.4941" y2="339.7119" gradientTransform="matrix(0.0178 0 0 0.0178 0 13.0844)">
		<stop offset="0.1291" style="stop-color:#428DFC"/>
		<stop offset="0.9987" style="stop-color:#1D72D8"/>
	</linearGradient>
	<path id="_1-i4" fill="url(#_1_1_-i4)" d="M128.435,18.025c0,0.44,0,0.733,0,1.172c0,6.008,4.844,10.991,10.862,11.284l0,0h67.52v7.767   H30.678c-10.568,0-19.082-8.646-19.082-19.197S20.109,0.147,30.678,0h175.993v7.767h-66.64c-0.147,0-0.294,0-0.44,0   s-0.44,0-0.587,0c-5.284,0.293-9.834,4.25-10.568,9.525C128.435,17.585,128.435,17.878,128.435,18.025z"/>
	
		<linearGradient id="_6_1_-i4" gradientUnits="userSpaceOnUse" x1="2539.1138" y1="11059.7383" x2="14172.6025" y2="11059.7383" gradientTransform="matrix(0.0178 0 0 0.0178 0 13.0844)">
		<stop offset="0.1291" style="stop-color:#428DFC"/>
		<stop offset="0.9987" style="stop-color:#1D72D8"/>
	</linearGradient>
	<path id="_6-i4" fill="url(#_6_1_-i4)" d="M235,209.702c0,10.551-8.513,19.05-19.082,19.05c0,0-0.147,0-0.294,0l0,0H28.182v-7.767H130.49   l0,0c6.018-0.293,10.862-5.276,10.862-11.284c0-0.293,0-0.586,0-0.733c-0.44-5.569-4.844-10.111-10.568-10.551   c-0.294,0-0.44,0-0.734,0c-0.147,0-0.294,0-0.44,0H28.329v-7.767h187.442l0,0c0,0,0.147,0,0.294,0   C226.34,190.652,235,199.151,235,209.702z"/>
	
		<linearGradient id="_2_1_-i4" gradientUnits="userSpaceOnUse" x1="673.34" y1="2486.9661" x2="14663.3301" y2="2486.9661" gradientTransform="matrix(0.0178 0 0 0.0178 0 13.0844)">
		<stop offset="0" style="stop-color:#A1C3FC"/>
		<stop offset="0.6955" style="stop-color:#81AEF2"/>
		<stop offset="0.7528" style="stop-color:#7FADF1"/>
		<stop offset="1" style="stop-color:#78A9EF"/>
	</linearGradient>
	<path id="_2-i4" fill="url(#_2_1_-i4)" d="M230.009,57.298c0,10.551-8.513,19.05-19.082,19.05h-0.294l0,0H23.045v-7.767H209.9l0,0   c6.312-0.293,11.155-5.569,10.862-11.723c-0.294-6.008-5.284-10.844-11.302-10.844c-0.147,0-0.294,0-0.44,0H23.045v-7.767h187.442   l0,0h0.294C221.349,38.101,230.009,46.747,230.009,57.298z"/>
	
		<linearGradient id="_6-2_1_-i4" gradientUnits="userSpaceOnUse" x1="3648.7627" y1="11059.7383" x2="9585.2314" y2="11059.7383" gradientTransform="matrix(0.0178 0 0 0.0178 0 13.0844)">
		<stop offset="0.0898" style="stop-color:#ffffff"/>
		<stop offset="0.8178" style="stop-color:#e7e8e9"/>
	</linearGradient>
	<path id="_6-2-i4" fill="url(#_6-2_1_-i4)" d="M141.206,209.702c0,6.008-4.844,10.991-10.862,11.284l0,0H35.668v-22.568h94.969   c5.578,0.44,10.128,4.836,10.568,10.551C141.206,209.116,141.206,209.409,141.206,209.702z"/>
	
		<linearGradient id="_2-2_1_-i4" gradientUnits="userSpaceOnUse" x1="1467.6443" y1="2572.3164" x2="12604.4854" y2="2394.4131" gradientTransform="matrix(0.0178 0 0 0.0178 0 13.0844)">
		<stop offset="0.0898" style="stop-color:#ffffff"/>
		<stop offset="0.8178" style="stop-color:#e7e8e9"/>
	</linearGradient>
	<path id="_2-2-i4" fill="url(#_2-2_1_-i4)" d="M220.909,57.298c0.147-6.008-4.697-11.137-10.715-11.284c-0.147,0-0.294,0-0.44,0H31.558   v22.568h178.488l0,0l0,0h0.44l0,0C216.505,68.142,220.909,63.16,220.909,57.298z"/>
	
		<linearGradient id="_3-2_1_-i4" gradientUnits="userSpaceOnUse" x1="1056.8386" y1="4630.1958" x2="11807.0742" y2="4630.1958" gradientTransform="matrix(0.0178 0 0 0.0178 0 13.0844)">
		<stop offset="0.0898" style="stop-color:#ffffff"/>
		<stop offset="0.8178" style="stop-color:#e7e8e9"/>
	</linearGradient>
	<path id="_3-2-i4" fill="url(#_3-2_1_-i4)" d="M209.9,95.399c0.147-6.155-4.697-11.137-10.862-11.284c-0.147,0-0.294,0-0.44,0H18.788   v22.567h180.25l0,0l0,0h0.44l0,0C205.497,106.243,210.047,101.261,209.9,95.399z"/>
	
		<linearGradient id="_4-2_1_-i4" gradientUnits="userSpaceOnUse" x1="11983.0439" y1="6913.7051" x2="4227.27" y2="6522.3662" gradientTransform="matrix(0.0178 0 0 0.0178 0 13.0844)">
		<stop offset="0.0898" style="stop-color:#ffffff"/>
		<stop offset="0.8178" style="stop-color:#e7e8e9"/>
	</linearGradient>
	<path id="_4-2-i4" fill="url(#_4-2_1_-i4)" d="M206.818,122.216v22.567h-86.455l0,0c-6.018-0.293-10.862-5.276-10.862-11.284   c0-0.293,0-0.586,0-0.733c0-0.293,0-0.586,0.147-0.879c0.734-5.276,5.137-9.232,10.422-9.525h86.749V122.216z"/>
	
		<linearGradient id="_7-2_1_-i4" gradientUnits="userSpaceOnUse" x1="13206.9463" y1="13225.9824" x2="-3729.6157" y2="13190.4043" gradientTransform="matrix(0.0178 0 0 0.0178 0 13.0844)">
		<stop offset="0.0898" style="stop-color:#ffffff"/>
		<stop offset="0.8178" style="stop-color:#e7e8e9"/>
	</linearGradient>
	<path id="_7-2-i4" fill="url(#_7-2_1_-i4)" d="M200.212,236.666H19.375c-0.147,0-0.294,0-0.44,0c-6.312,0.293-11.156,5.422-10.862,11.723   c0.147,5.715,4.697,10.405,10.422,10.844l0,0h0.44l0,0l0,0h181.277V236.666z"/>
	
		<linearGradient id="_1-2_1_-i4" gradientUnits="userSpaceOnUse" x1="12550.7227" y1="831.9955" x2="7464.1123" y2="13.8683" gradientTransform="matrix(0.0178 0 0 0.0178 0 13.0844)">
		<stop offset="0.0898" style="stop-color:#ffffff"/>
		<stop offset="0.8178" style="stop-color:#e7e8e9"/>
	</linearGradient>
	<path id="_1-2-i4" fill="url(#_1-2_1_-i4)" d="M199.625,7.913v22.567h-60.475l0,0c-6.018-0.293-10.862-5.276-10.862-11.284   c0-0.44,0-0.733,0-1.172c0-0.147,0-0.44,0-0.586c0.881-5.276,5.284-9.232,10.568-9.525H199.625z"/>
	
		<linearGradient id="_5-2_1_-i4" gradientUnits="userSpaceOnUse" x1="12174.6377" y1="9003.3984" x2="-1630.7786" y2="8789.917" gradientTransform="matrix(0.0178 0 0 0.0178 0 13.0844)">
		<stop offset="0.0898" style="stop-color:#ffffff"/>
		<stop offset="0.8178" style="stop-color:#e7e8e9"/>
	</linearGradient>
	<path id="_5-2-i4" fill="url(#_5-2_1_-i4)" d="M224.872,160.61H47.117c-0.147,0-0.294,0-0.44,0c-6.312,0.293-11.009,5.715-10.715,11.87   c0.294,5.569,4.697,10.111,10.275,10.698l0,0h0.44l0,0l0,0h178.048V160.61H224.872z"/>
</g>

            </g>
        </g>
    </g>
    
    <!-- ITEM 5 -->
    <g>
        <defs>
            <clipPath id="clip-path-id-viewbox-item-5">
                <rect x="0.0" y="0.0" width="281.0" height="400.0"/>
            </clipPath>
        </defs>
        <g transform="translate(883.0 296.0) rotate(0.0 292.0 416.0) scale(2.078291814946619 2.08)">
            <g clip-path="url(#clip-path-id-viewbox-item-5)" transform="translate(-0.0 -0.0)">
                
<linearGradient id="L_hand_2_-i5" gradientUnits="userSpaceOnUse" x1="3865.0413" y1="3609.4814" x2="5021.6396" y2="3609.4814" gradientTransform="matrix(0.0741 0 0 0.0741 -230.5491 -116.8632)">
	<stop offset="0" style="stop-color:#FFBEB6"/>
	<stop offset="1" style="stop-color:#F2A19C"/>
</linearGradient>
<path id="L_hand_1_-i5" fill="url(#L_hand_2_-i5)" d="M127.557,140.99c0,0-17.41,3.24-26.608-0.056  c-9.197-3.298-22.436-11.753-26.949-8.629c-4.512,3.124-18.149,12.701-18.149,12.701s3.817,4.167,12.148-1.041  c8.33-5.208,9.493-1.816,14.006,1.482c4.513,3.299,13.391,12.672,21.547,9.895c8.156-2.777,12.494-1.91,19.783,2.951  c7.288,4.86,18.221,11.284,18.221,11.284l-6.248-24.475L127.557,140.99z"/>
<linearGradient id="R_trousers_1_-i5" gradientUnits="userSpaceOnUse" x1="3173.5127" y1="-4937.5073" x2="4357.9399" y2="-3597.5493" gradientTransform="matrix(0.0741 0 0 -0.0741 -230.5491 -0.9887)">
	<stop offset="0" style="stop-color:#3E8AF8"/>
	<stop offset="0.4648" style="stop-color:#2A82F5"/>
	<stop offset="1" style="stop-color:#1479F2"/>
</linearGradient>
<path id="R_trousers-i5" fill="url(#R_trousers_1_-i5)" d="M83.884,361.372H54.012c0,0,6.057-101.809,8.89-130.058  c2.848-28.392,4.583-38.532,43.388-42.331c44.313-4.336,71.246-4.251,71.246-4.251l-44.651,37.685  c-10.436,8.808-14.968,22.779-11.689,36.038l0.524,2.121c1.936,7.834,1.176,16.093-2.157,23.441l-15.674,34.552  C103.89,318.57,106.436,347.446,83.884,361.372z"/>
<path id="L_leg-i5" fill="#428DFC" d="M244.888,192.805c-1.516,5.875-1.087,32.368-31.298,38.179  c-35.018,6.738-56.14,5.352-66.264,8.114c-8.227,2.245-10.595,5.387-9.724,11.221c0.872,5.826,9.219,12.591,11.843,23.669  c2.626,11.077-2.321,18.022,8.317,31.711c10.377,13.354,16.676,26.603,7.109,55.671l-31.765,0.002c0,0-57.126-109.94-60.038-132.967  c-2.911-23.027,14.352-28.175,22.515-30.513c3.091-0.892,13.391-3.732,34.311-8.864c4.477,3.012,14.492,8.65,23.734,6.134  c12.361-3.378,15.165-8.154,29.498-4.776c8.499,2.001,23.624,4.696,35.749,0.327C227.479,192.1,236.177,192.799,244.888,192.805z"/>
<linearGradient id="R_sleeve_1_-i5" gradientUnits="userSpaceOnUse" x1="4832.7349" y1="-1694.983" x2="5739.6377" y2="-1694.983" gradientTransform="matrix(0.0741 0 0 -0.0741 -230.5491 -0.9887)">
	<stop offset="0" style="stop-color:#28306D"/>
	<stop offset="1" style="stop-color:#13194C"/>
</linearGradient>
<path id="R_sleeve-i5" fill="url(#R_sleeve_1_-i5)" d="M194.758,100.753c-0.327,1.338-0.624,2.734-0.882,4.162  c-5.893,32.31-18.888,40.259-37.64,41.873c-10.089,0.868-19.947,2.2-27.019,1.467l-1.661-7.264  C180.362,137.046,190.261,110.534,194.758,100.753z"/>
<path id="L_hand-i5" fill="#FFBEB6" d="M120.485,148.566c0,0-25.163-0.868-34.359-4.167c-9.197-3.298-23.427-10.762-27.939-7.639  c-4.512,3.124-20.13,16.664-20.13,16.664s3.817,4.167,12.148-1.042c8.33-5.208,8.503-6.77,13.016-3.472  c4.513,3.299,17.353,12.672,25.509,9.895c8.156-2.776,12.494-1.91,19.783,2.951c7.288,4.86,18.221,11.284,18.221,11.284  L120.485,148.566"/>
<linearGradient id="neck_1_-i5" gradientUnits="userSpaceOnUse" x1="5973.979" y1="-1062.9771" x2="5973.979" y2="-689.9449" gradientTransform="matrix(0.0741 0 0 -0.0741 -230.5491 -0.9887)">
	<stop offset="0" style="stop-color:#FFBEB6"/>
	<stop offset="1" style="stop-color:#F2A19C"/>
</linearGradient>
<path id="neck-i5" fill="url(#neck_1_-i5)" d="M221.186,62.711c-5.083,2.852-9.646,6.547-13.491,10.928l-0.436,0.337  c-0.562-5.747-1.978-11.376-4.2-16.705c4.676-0.317,10.232-2.249,16.632-6.985C219.026,54.486,219.544,58.788,221.186,62.711z"/>
<path id="face-i5" fill="#FFBEB6" d="M223.334,39.199c-0.287,1.982-2.793,5.727-3.645,11.088c-20.755,17.543-35.015-2.22-35.015-2.22  c-3.011,0.882-6.687-1.819-5.507-4.25c4.769-9.833,4.081-11.196,5.181-16.022c0.287-1.258,0.525-2.398,0.724-3.368  c0.03-0.129,0.059-0.258,0.079-0.376c0.158-0.802,0.287-1.467,0.376-1.962l0.169-0.96c0,0,11.035,10.77,24.248,9.373  C223.156,29.112,223.86,35.543,223.334,39.199z"/>
<path id="texture-i5" opacity="0.71" fill="#FFFFFF" enable-background="new    " d="M227.476,194.292  c-0.071-0.048-0.169-0.03-0.218,0.04c-0.049,0.062-0.04,0.154,0.024,0.203c0.002,0.002,0.004,0.003,0.006,0.005  c0.071,0.048,0.169,0.03,0.218-0.04C227.547,194.433,227.535,194.344,227.476,194.292z M214.232,202.317  c-0.079,0.019-0.133,0.097-0.119,0.178c0.017,0.082,0.097,0.134,0.178,0.117c0.077-0.016,0.129-0.088,0.119-0.166  c-0.011-0.083-0.087-0.141-0.169-0.131C214.238,202.316,214.235,202.316,214.232,202.317z M213.667,198.71  c-0.085,0.008-0.147,0.084-0.139,0.169l0,0c0.019,0.087,0.101,0.143,0.188,0.129c0.083-0.016,0.136-0.097,0.119-0.178l0,0  c-0.01-0.077-0.079-0.131-0.157-0.121C213.675,198.708,213.671,198.709,213.667,198.71L213.667,198.71z M213.082,195.084  c-0.083,0.023-0.134,0.104-0.119,0.188c0.014,0.08,0.09,0.132,0.169,0.119c0.082-0.013,0.138-0.088,0.129-0.169  C213.248,195.137,213.17,195.075,213.082,195.084L213.082,195.084z M199.373,198.751c-0.066-0.037-0.15-0.021-0.198,0.04  c-0.052,0.063-0.044,0.157,0.019,0.21c0.063,0.052,0.157,0.044,0.21-0.019c0.003-0.004,0.007-0.008,0.009-0.012  C199.462,198.897,199.444,198.8,199.373,198.751L199.373,198.751z M220.839,197.898c-0.042-0.067-0.13-0.089-0.197-0.046  c-0.004,0.002-0.007,0.005-0.011,0.007c-0.064,0.036-0.087,0.119-0.049,0.183c0.003,0.005,0.006,0.01,0.01,0.015  c0.034,0.066,0.117,0.094,0.184,0.058c0.005-0.003,0.01-0.005,0.014-0.009c0.07-0.04,0.096-0.128,0.055-0.198  C220.843,197.905,220.841,197.901,220.839,197.898L220.839,197.898z M218.926,194.777c-0.044-0.064-0.129-0.085-0.198-0.049  c-0.03,0.03-0.059,0.049-0.069,0.08v0.02c-0.018,0.04-0.01,0.088,0.02,0.119c0.001,0.011,0.009,0.019,0.02,0.02h0.01  c0.01,0.01,0.02,0.03,0.039,0.04c0.042,0.012,0.088,0.008,0.129-0.01C218.951,194.949,218.973,194.851,218.926,194.777  L218.926,194.777z M217.015,191.666c-0.044-0.068-0.136-0.088-0.204-0.042c-0.068,0.045-0.088,0.136-0.042,0.204  c0.042,0.065,0.129,0.085,0.196,0.046c0.07-0.042,0.094-0.134,0.051-0.205C217.016,191.668,217.016,191.667,217.015,191.666  L217.015,191.666z M206.951,200.138c-0.085-0.015-0.166,0.036-0.188,0.119c-0.023,0.082,0.025,0.166,0.106,0.188  c0.081,0.022,0.166-0.025,0.188-0.106c0.001-0.004,0.002-0.009,0.003-0.013C207.072,200.246,207.028,200.167,206.951,200.138  L206.951,200.138z M207.803,196.59c-0.083-0.02-0.164,0.028-0.188,0.109c-0.015,0.085,0.04,0.164,0.124,0.179  c0.074,0.014,0.148-0.028,0.173-0.101C207.93,196.697,207.882,196.617,207.803,196.59L207.803,196.59z M233.498,207.797  c-0.096-0.129-0.275-0.159-0.406-0.069c-0.127,0.097-0.15,0.277-0.055,0.403c0.094,0.122,0.266,0.15,0.392,0.062  c0.128-0.085,0.162-0.256,0.079-0.384C233.504,207.806,233.501,207.801,233.498,207.797L233.498,207.797z M229.486,202.139  c-0.092-0.128-0.268-0.158-0.397-0.069c-0.13,0.085-0.166,0.258-0.084,0.387c0.004,0.007,0.009,0.012,0.014,0.019  c0.091,0.129,0.268,0.159,0.397,0.069C229.545,202.45,229.575,202.271,229.486,202.139z M225.474,196.492  c-0.096-0.129-0.275-0.159-0.406-0.069c-0.128,0.085-0.163,0.258-0.077,0.386c0.002,0.004,0.005,0.007,0.008,0.011  c0.092,0.131,0.272,0.161,0.403,0.07C225.529,196.799,225.563,196.622,225.474,196.492z M208.883,219.845  c-0.155-0.025-0.302,0.076-0.337,0.228c-0.026,0.155,0.079,0.3,0.232,0.326c0.002,0,0.003,0,0.005,0.001  c0.158,0.028,0.309-0.079,0.337-0.237c0,0,0,0,0-0.001c0.026-0.149-0.073-0.29-0.222-0.315  C208.894,219.846,208.888,219.846,208.883,219.845z M210.041,212.998c-0.154-0.026-0.299,0.077-0.326,0.23  c0,0.003-0.001,0.006-0.001,0.009c-0.028,0.155,0.073,0.305,0.227,0.337c0.157,0.023,0.306-0.082,0.337-0.239  C210.298,213.178,210.195,213.033,210.041,212.998z M211.2,206.162c-0.157-0.019-0.302,0.085-0.337,0.238  c-0.025,0.157,0.083,0.303,0.239,0.328c0.152,0.024,0.296-0.078,0.326-0.228c0.031-0.154-0.067-0.304-0.222-0.335  C211.204,206.163,211.202,206.162,211.2,206.162L211.2,206.162z M212.35,199.326c-0.154-0.016-0.295,0.088-0.327,0.238  c-0.028,0.158,0.077,0.31,0.235,0.337c0.158,0.027,0.31-0.077,0.337-0.236c0.028-0.158-0.077-0.31-0.235-0.337  C212.357,199.327,212.354,199.327,212.35,199.326z M213.518,192.488c-0.155-0.026-0.3,0.079-0.326,0.233  c0,0.002,0,0.003-0.001,0.005c-0.033,0.15,0.061,0.3,0.211,0.334c0.005,0.001,0.011,0.002,0.016,0.003  c0.15,0.028,0.295-0.069,0.324-0.22c0.001-0.006,0.002-0.012,0.003-0.018C213.774,192.669,213.673,192.521,213.518,192.488  L213.518,192.488z M239.233,196.938c-0.132-0.089-0.31-0.052-0.399,0.08c-0.089,0.132-0.052,0.31,0.079,0.399  c0.004,0.003,0.008,0.005,0.012,0.008c0.135,0.08,0.308,0.04,0.397-0.09c0.087-0.127,0.053-0.299-0.072-0.387  C239.243,196.945,239.239,196.941,239.233,196.938L239.233,196.938z M223.394,216.13c-0.154,0.032-0.251,0.183-0.218,0.337  c0.032,0.153,0.183,0.251,0.337,0.218c0.158-0.033,0.261-0.188,0.227-0.347C223.7,216.186,223.547,216.095,223.394,216.13  L223.394,216.13z M221.849,209.372c-0.148,0.025-0.248,0.164-0.222,0.312c0.001,0.008,0.003,0.017,0.005,0.025  c0.032,0.152,0.182,0.251,0.335,0.218c0.001,0,0.001,0,0.002,0c0.158-0.033,0.261-0.188,0.227-0.347  c-0.036-0.152-0.19-0.246-0.342-0.208C221.852,209.371,221.851,209.372,221.849,209.372L221.849,209.372z M220.294,202.605  c-0.152,0.039-0.246,0.193-0.208,0.347c0.032,0.152,0.182,0.251,0.335,0.218c0.001,0,0.001,0,0.002,0  c0.157-0.035,0.258-0.189,0.227-0.347C220.609,202.667,220.451,202.571,220.294,202.605L220.294,202.605z M218.748,195.847  c-0.152,0.036-0.246,0.19-0.208,0.342c0,0.002,0.001,0.003,0.001,0.005c0.028,0.146,0.171,0.242,0.316,0.213  c0.007-0.001,0.014-0.003,0.021-0.005c0.15-0.028,0.249-0.171,0.22-0.321c-0.001-0.005-0.002-0.011-0.003-0.016  C219.057,195.912,218.904,195.815,218.748,195.847L218.748,195.847z M197.412,211.948c-0.12-0.084-0.284-0.053-0.367,0.066  c-0.007,0.01-0.014,0.021-0.019,0.032c-0.083,0.13-0.044,0.302,0.085,0.385c0.001,0.001,0.002,0.002,0.004,0.002  c0.13,0.087,0.304,0.05,0.39-0.08c0.002-0.003,0.004-0.007,0.006-0.01C197.593,212.208,197.548,212.031,197.412,211.948z   M201.107,206.082c-0.127-0.087-0.299-0.053-0.386,0.073c-0.004,0.005-0.007,0.011-0.01,0.016c-0.087,0.132-0.051,0.308,0.079,0.397  c0.142,0.07,0.313,0.028,0.406-0.099C201.274,206.337,201.235,206.167,201.107,206.082L201.107,206.082z M204.792,200.206  c-0.13-0.089-0.306-0.054-0.395,0.076c-0.001,0.001-0.002,0.002-0.002,0.004c-0.088,0.133-0.052,0.312,0.079,0.401  c0.003,0.002,0.006,0.004,0.009,0.006c0.127,0.084,0.297,0.047,0.38-0.08c0.002-0.003,0.004-0.007,0.006-0.01  C204.958,200.473,204.924,200.295,204.792,200.206L204.792,200.206L204.792,200.206z M208.467,194.331  c-0.132-0.08-0.303-0.037-0.383,0.094c-0.001,0.002-0.002,0.003-0.003,0.005c-0.085,0.122-0.053,0.29,0.068,0.373  c0.007,0.005,0.014,0.009,0.021,0.012c0.135,0.079,0.308,0.04,0.397-0.09c0.084-0.13,0.045-0.304-0.085-0.387  C208.476,194.337,208.472,194.334,208.467,194.331L208.467,194.331z M229.941,214.514c-0.125,0.031-0.201,0.158-0.169,0.284  c0.003,0.012,0.007,0.023,0.011,0.033c0.039,0.129,0.174,0.202,0.303,0.164c0.005-0.001,0.009-0.003,0.014-0.005  c0.131-0.044,0.202-0.186,0.158-0.317c-0.036-0.128-0.169-0.201-0.296-0.166C229.954,214.509,229.948,214.511,229.941,214.514  L229.941,214.514z M227.99,208.629c-0.131,0.04-0.204,0.177-0.166,0.307c0.002,0.007,0.004,0.013,0.007,0.02  c0.044,0.132,0.183,0.205,0.317,0.169c0.135-0.048,0.205-0.198,0.157-0.333C228.259,208.662,228.122,208.592,227.99,208.629  L227.99,208.629z M226.366,202.912c-0.007-0.049-0.035-0.094-0.079-0.119h-0.01c-0.067-0.053-0.157-0.068-0.238-0.039  c-0.136,0.047-0.208,0.196-0.16,0.332c0.001,0.002,0.001,0.003,0.002,0.005c0.045,0.13,0.186,0.199,0.317,0.158  c0.064-0.017,0.117-0.065,0.139-0.129C226.387,203.062,226.398,202.982,226.366,202.912L226.366,202.912z M224.097,196.877  c-0.14,0.046-0.215,0.197-0.169,0.337l0,0c0.052,0.129,0.193,0.197,0.327,0.158c0.131-0.04,0.204-0.177,0.166-0.307  c-0.002-0.007-0.004-0.013-0.007-0.02C224.372,196.914,224.231,196.838,224.097,196.877z M204.168,212.632  c-0.129-0.061-0.283-0.009-0.347,0.119c-0.065,0.126-0.017,0.281,0.109,0.347c0.132,0.058,0.286,0.007,0.356-0.119  C204.334,212.85,204.284,212.705,204.168,212.632z M206.941,207.103c-0.129-0.061-0.284-0.009-0.347,0.119  c-0.064,0.12-0.019,0.269,0.101,0.333c0.003,0.001,0.005,0.003,0.008,0.004c0.114,0.065,0.26,0.026,0.326-0.088  c0.004-0.007,0.008-0.014,0.011-0.022c0.069-0.12,0.028-0.274-0.092-0.343C206.946,207.106,206.944,207.104,206.941,207.103  L206.941,207.103z M209.715,201.574c-0.129-0.061-0.283-0.009-0.347,0.119c-0.065,0.114-0.026,0.26,0.088,0.326  c0.007,0.004,0.014,0.008,0.022,0.011c0.129,0.061,0.283,0.009,0.347-0.119C209.884,201.788,209.837,201.639,209.715,201.574  L209.715,201.574z M212.479,196.036c-0.129-0.046-0.274,0.003-0.347,0.119c-0.061,0.129-0.009,0.283,0.119,0.347  c0.126,0.06,0.277,0.012,0.347-0.109C212.656,196.26,212.604,196.106,212.479,196.036L212.479,196.036z M236.143,200.851  c-0.087-0.106-0.242-0.123-0.348-0.036c-0.007,0.005-0.012,0.011-0.019,0.017c-0.103,0.077-0.125,0.222-0.047,0.325  c0.006,0.008,0.012,0.015,0.018,0.022c0.077,0.106,0.225,0.129,0.332,0.051c0.009-0.007,0.017-0.014,0.025-0.022  C236.211,201.12,236.23,200.961,236.143,200.851L236.143,200.851z M232.091,196.165c-0.099-0.101-0.258-0.108-0.366-0.02  c-0.105,0.097-0.114,0.26-0.02,0.366c0.092,0.101,0.245,0.108,0.347,0.02c0.112-0.087,0.133-0.246,0.046-0.357  C232.096,196.171,232.093,196.168,232.091,196.165L232.091,196.165z M217.6,213.078c-0.144-0.003-0.265,0.105-0.278,0.248  c-0.005,0.143,0.106,0.263,0.25,0.268c0.135,0.005,0.25-0.094,0.266-0.228C217.848,213.222,217.742,213.096,217.6,213.078  L217.6,213.078z M218.045,206.915c-0.14-0.008-0.259,0.099-0.268,0.238c-0.008,0.14,0.099,0.26,0.239,0.269  c0.136,0.008,0.255-0.094,0.268-0.229C218.291,207.051,218.186,206.929,218.045,206.915L218.045,206.915z M218.491,200.752  c-0.129-0.018-0.248,0.071-0.266,0.2c-0.001,0.009-0.002,0.019-0.002,0.028c-0.008,0.14,0.099,0.259,0.238,0.268  c0.136,0.011,0.257-0.091,0.268-0.228c0.011-0.136-0.091-0.257-0.227-0.268C218.498,200.752,218.495,200.752,218.491,200.752z   M218.937,194.579c-0.14-0.012-0.263,0.09-0.277,0.228v0.02c0.003,0.048,0.016,0.097,0.039,0.139h0.01  c0.01,0.01,0.02,0.03,0.04,0.04c0.042,0.044,0.099,0.071,0.158,0.08c0.14,0.008,0.259-0.101,0.267-0.239  C219.181,194.707,219.075,194.588,218.937,194.579z M196.53,202.734c-0.097-0.103-0.255-0.116-0.366-0.03  c-0.105,0.097-0.113,0.26-0.02,0.366c0.09,0.107,0.248,0.121,0.354,0.031c0.001-0.001,0.001-0.001,0.002-0.002  C196.608,203.006,196.621,202.844,196.53,202.734L196.53,202.734z M201.206,198.681c-0.096-0.099-0.251-0.108-0.356-0.02  c-0.109,0.08-0.132,0.234-0.051,0.342c0.004,0.005,0.008,0.01,0.012,0.015c0.094,0.107,0.257,0.12,0.366,0.03  c0.109-0.088,0.126-0.249,0.037-0.357C201.211,198.687,201.209,198.683,201.206,198.681L201.206,198.681z M233.388,199.781  c-0.046-0.065-0.134-0.091-0.208-0.059c-0.073,0.04-0.101,0.134-0.059,0.207v0.001c0.032,0.069,0.116,0.099,0.185,0.066  c0.004-0.002,0.009-0.004,0.013-0.007C233.395,199.951,233.426,199.857,233.388,199.781L233.388,199.781z M231.596,196.611  c-0.044-0.07-0.134-0.097-0.208-0.059c-0.074,0.04-0.101,0.134-0.059,0.208c0.04,0.074,0.134,0.101,0.208,0.059  C231.606,196.775,231.631,196.685,231.596,196.611L231.596,196.611z M218.036,201.564c-0.075-0.023-0.155,0.02-0.177,0.094  c0,0.002-0.001,0.003-0.001,0.005c-0.024,0.08,0.021,0.162,0.099,0.188c0.083,0.02,0.164-0.028,0.188-0.109  C218.163,201.664,218.114,201.583,218.036,201.564L218.036,201.564L218.036,201.564z M219.016,198.047  c-0.07-0.026-0.148,0.011-0.173,0.08c-0.002,0.006-0.004,0.012-0.005,0.019c-0.026,0.076,0.012,0.158,0.089,0.185  c0.004,0.001,0.007,0.002,0.011,0.003c0.082,0.019,0.164-0.023,0.198-0.099c0.02-0.085-0.033-0.169-0.117-0.188  C219.017,198.047,219.017,198.047,219.016,198.047L219.016,198.047z M220.006,194.53c-0.079-0.023-0.163,0.023-0.186,0.102  c-0.001,0.002-0.001,0.005-0.002,0.007c-0.019,0.08,0.03,0.159,0.109,0.178l0,0c0.075,0.023,0.155-0.02,0.177-0.094  c0-0.002,0.001-0.003,0.001-0.005C220.13,194.638,220.085,194.555,220.006,194.53L220.006,194.53z M225.702,200.177  c-0.076,0.004-0.136,0.068-0.132,0.145c0,0.008,0.001,0.016,0.003,0.024c0.017,0.079,0.088,0.134,0.169,0.129  c0.082-0.013,0.138-0.088,0.129-0.168c-0.009-0.08-0.082-0.139-0.162-0.13C225.705,200.176,225.704,200.177,225.702,200.177  L225.702,200.177z M225.257,196.551c-0.08,0-0.129,0.08-0.129,0.169c0.017,0.079,0.089,0.134,0.169,0.129  c0.087-0.01,0.149-0.088,0.14-0.174c0-0.001,0-0.003,0-0.004c-0.013-0.08-0.089-0.134-0.169-0.121  C225.263,196.549,225.26,196.55,225.257,196.551L225.257,196.551z M212.33,196.551c-0.057-0.05-0.145-0.044-0.195,0.013  c-0.005,0.005-0.009,0.011-0.013,0.017c-0.049,0.065-0.035,0.158,0.03,0.208c0.065,0.049,0.158,0.035,0.208-0.03  C212.409,196.694,212.395,196.6,212.33,196.551z M214.588,193.687c-0.056-0.05-0.144-0.045-0.194,0.011  c-0.005,0.006-0.01,0.012-0.014,0.019c-0.049,0.054-0.046,0.139,0.008,0.188c0.004,0.004,0.008,0.007,0.012,0.01  c0.066,0.053,0.162,0.044,0.218-0.02c0.049-0.062,0.039-0.154-0.024-0.203C214.593,193.69,214.59,193.688,214.588,193.687  L214.588,193.687z M234.894,203.803c-0.088,0.023-0.139,0.113-0.115,0.199c0.002,0.006,0.004,0.012,0.006,0.019  c0.032,0.088,0.128,0.136,0.218,0.109c0.091-0.035,0.139-0.135,0.109-0.228C235.08,203.815,234.982,203.771,234.894,203.803  C234.895,203.803,234.894,203.803,234.894,203.803L234.894,203.803z M233.547,199.86c-0.092,0.028-0.144,0.125-0.119,0.218  c0.036,0.09,0.135,0.136,0.227,0.109c0.085-0.026,0.132-0.118,0.105-0.202c-0.002-0.005-0.004-0.011-0.006-0.016  c-0.026-0.087-0.116-0.136-0.202-0.111C233.551,199.859,233.549,199.859,233.547,199.86L233.547,199.86z M232.191,195.917  c-0.093,0.031-0.142,0.132-0.11,0.224c0,0.001,0.001,0.003,0.001,0.004c0,0.01,0,0.01,0.01,0.02c0.042,0.071,0.127,0.107,0.208,0.09  c0.09-0.036,0.136-0.136,0.109-0.227C232.377,195.936,232.28,195.888,232.191,195.917L232.191,195.917z M217.531,202.723  c-0.091-0.034-0.192,0.004-0.239,0.09c-0.04,0.085-0.005,0.186,0.079,0.228c0.076,0.044,0.173,0.018,0.218-0.058  c0.004-0.007,0.007-0.014,0.01-0.021C217.645,202.876,217.614,202.771,217.531,202.723L217.531,202.723z M219.353,198.978  c-0.088-0.03-0.184,0.008-0.227,0.09c-0.044,0.08-0.016,0.181,0.064,0.224c0.002,0.001,0.003,0.002,0.005,0.003  c0.083,0.047,0.187,0.019,0.234-0.063c0.001-0.002,0.002-0.004,0.003-0.006C219.47,199.135,219.437,199.03,219.353,198.978  L219.353,198.978z M221.186,195.243c-0.089-0.036-0.189-0.003-0.237,0.08c-0.036,0.085-0.002,0.184,0.079,0.228  c0.076,0.044,0.173,0.018,0.218-0.058c0.004-0.007,0.007-0.014,0.01-0.021c0.044-0.079,0.018-0.177-0.059-0.222  C221.192,195.245,221.189,195.244,221.186,195.243L221.186,195.243z M241.442,197.552c-0.061-0.073-0.171-0.084-0.245-0.022  c-0.001,0.001-0.002,0.001-0.003,0.002c-0.07,0.064-0.079,0.172-0.02,0.248c0.064,0.071,0.174,0.077,0.246,0.012  c0.001-0.001,0.002-0.001,0.002-0.002C241.492,197.728,241.501,197.623,241.442,197.552L241.442,197.552z M226.286,202.794h-0.01  c-0.093,0.003-0.166,0.077-0.169,0.169c-0.01,0.089,0.054,0.169,0.144,0.177c0.005,0.001,0.01,0.001,0.015,0.001  c0.025,0.002,0.049-0.005,0.069-0.02c0.068-0.008,0.117-0.07,0.109-0.139l0,0c0.01-0.094-0.056-0.177-0.15-0.187  C226.292,202.794,226.289,202.794,226.286,202.794L226.286,202.794z M226.544,198.632c-0.096-0.008-0.18,0.062-0.188,0.157  c-0.008,0.096,0.062,0.18,0.157,0.188c0.004,0,0.007,0.001,0.011,0.001c0.093,0.006,0.172-0.063,0.178-0.155  c0-0.001,0-0.002,0-0.003c0.01-0.094-0.056-0.177-0.15-0.187C226.55,198.632,226.547,198.632,226.544,198.632L226.544,198.632z   M226.801,194.48c-0.085-0.012-0.164,0.047-0.176,0.133c-0.001,0.009-0.002,0.017-0.002,0.026c-0.01,0.094,0.056,0.177,0.15,0.187  c0.003,0,0.006,0.001,0.009,0.001c0.096,0.002,0.174-0.073,0.178-0.168c0.01-0.089-0.054-0.169-0.144-0.177  C226.811,194.48,226.806,194.48,226.801,194.48L226.801,194.48z M212.023,195.966c-0.06-0.065-0.163-0.069-0.228-0.009  c-0.003,0.003-0.006,0.006-0.009,0.009c-0.07,0.06-0.078,0.166-0.02,0.239c0.062,0.074,0.173,0.084,0.248,0.021  s0.084-0.173,0.021-0.248C212.03,195.973,212.027,195.97,212.023,195.966L212.023,195.966z M215.143,193.212  c-0.063-0.071-0.172-0.077-0.243-0.014c-0.002,0.001-0.003,0.003-0.005,0.004c-0.065,0.06-0.069,0.162-0.009,0.229  c0.003,0.003,0.006,0.006,0.009,0.009c0.049,0.067,0.144,0.083,0.211,0.033c0.006-0.004,0.011-0.009,0.016-0.014  c0.073-0.061,0.085-0.171,0.023-0.244C215.145,193.214,215.144,193.213,215.143,193.212L215.143,193.212z M228.407,221.094  c-0.162-0.019-0.307,0.098-0.326,0.259c0,0.003-0.001,0.006-0.001,0.009c-0.011,0.16,0.107,0.301,0.268,0.317  c0.162,0.012,0.307-0.105,0.327-0.268c0.015-0.16-0.104-0.302-0.263-0.317C228.409,221.094,228.408,221.094,228.407,221.094  L228.407,221.094z M228.981,213.97c-0.159-0.015-0.301,0.102-0.317,0.262c0,0.002,0,0.004,0,0.006  c-0.007,0.162,0.115,0.302,0.277,0.317c0.162,0.014,0.303-0.106,0.316-0.268c0.014-0.161-0.106-0.303-0.268-0.316  C228.987,213.97,228.984,213.97,228.981,213.97z M229.575,206.845c-0.16-0.019-0.307,0.098-0.325,0.258  c-0.019,0.161,0.097,0.307,0.258,0.325c0.006,0.001,0.012,0.001,0.018,0.002c0.164,0.016,0.31-0.104,0.327-0.268  C229.856,207.001,229.736,206.863,229.575,206.845L229.575,206.845z M230.16,199.721c-0.163-0.007-0.302,0.115-0.317,0.278  c-0.011,0.16,0.107,0.301,0.268,0.317c0.164,0.011,0.306-0.113,0.318-0.278C230.44,199.878,230.32,199.737,230.16,199.721  L230.16,199.721z M201.86,207.439c-0.101-0.123-0.282-0.141-0.406-0.039c-0.004,0.003-0.007,0.006-0.011,0.009  c-0.122,0.093-0.147,0.266-0.055,0.387c0.005,0.007,0.01,0.012,0.016,0.019c0.109,0.125,0.296,0.142,0.426,0.039  C201.948,207.747,201.961,207.564,201.86,207.439z M207.308,202.823c-0.101-0.126-0.284-0.146-0.41-0.044  c-0.126,0.102-0.146,0.284-0.044,0.41c0.003,0.004,0.006,0.007,0.009,0.011c0.107,0.121,0.289,0.138,0.417,0.04  C207.4,203.132,207.412,202.947,207.308,202.823z M212.756,198.196c-0.105-0.125-0.291-0.143-0.417-0.04  c-0.12,0.111-0.136,0.295-0.039,0.426c0.107,0.122,0.293,0.135,0.417,0.03c0.126-0.099,0.147-0.281,0.048-0.406  C212.761,198.203,212.759,198.198,212.756,198.196z M218.204,193.578c-0.099-0.126-0.281-0.147-0.406-0.048  c-0.004,0.003-0.007,0.006-0.011,0.009c-0.12,0.111-0.138,0.295-0.04,0.426c0.107,0.122,0.293,0.135,0.417,0.03  c0.126-0.099,0.147-0.281,0.048-0.406C218.21,193.585,218.207,193.581,218.204,193.578z M238.43,202.536  c-0.157,0.045-0.247,0.21-0.201,0.367c0.045,0.158,0.21,0.247,0.367,0.201c0.004-0.001,0.008-0.002,0.012-0.004  c0.157-0.045,0.247-0.21,0.201-0.367s-0.21-0.247-0.367-0.201C238.438,202.533,238.434,202.535,238.43,202.536z M236.43,195.739  c-0.058-0.012-0.12-0.012-0.178,0c-0.157,0.05-0.245,0.218-0.198,0.376c0.058,0.157,0.232,0.236,0.389,0.177  c0.148-0.055,0.227-0.214,0.185-0.365C236.597,195.834,236.523,195.764,236.43,195.739z M215.757,214.138  c-0.148-0.071-0.325-0.009-0.396,0.139l0,0c-0.07,0.143-0.018,0.316,0.119,0.397c0.149,0.068,0.324,0.012,0.406-0.129  c0.077-0.146,0.022-0.327-0.124-0.405C215.759,214.14,215.759,214.139,215.757,214.138L215.757,214.138z M219.026,207.787  c-0.142-0.073-0.316-0.018-0.389,0.124c-0.003,0.005-0.005,0.01-0.007,0.015c-0.074,0.138-0.023,0.31,0.115,0.385  c0.001,0.001,0.003,0.001,0.004,0.002c0.146,0.078,0.327,0.022,0.405-0.124c0.001-0.002,0.002-0.003,0.002-0.005  c0.076-0.138,0.026-0.311-0.111-0.387C219.038,207.793,219.032,207.79,219.026,207.787z M222.285,201.425  c-0.146-0.064-0.315-0.003-0.386,0.139c-0.075,0.142-0.021,0.317,0.121,0.393c0.003,0.001,0.005,0.003,0.008,0.004  c0.138,0.072,0.308,0.02,0.381-0.118c0.002-0.004,0.004-0.007,0.005-0.011c0.077-0.146,0.022-0.327-0.125-0.405  C222.288,201.427,222.286,201.427,222.285,201.425L222.285,201.425z M225.554,195.074c-0.148-0.067-0.323-0.007-0.397,0.139  c-0.067,0.149-0.001,0.323,0.147,0.391c0.139,0.062,0.303,0.01,0.378-0.123c0.077-0.146,0.022-0.327-0.124-0.405  C225.557,195.076,225.556,195.075,225.554,195.074L225.554,195.074z M241.749,198.561c-0.154,0.054-0.236,0.22-0.188,0.376  c0.066,0.148,0.23,0.225,0.386,0.178c0.152-0.056,0.228-0.225,0.172-0.376c-0.001-0.004-0.003-0.007-0.004-0.011  c-0.052-0.147-0.214-0.222-0.36-0.171C241.753,198.561,241.751,198.561,241.749,198.561L241.749,198.561z M219.413,217.397  c-0.154-0.062-0.329,0.008-0.397,0.158c-0.06,0.148,0.005,0.317,0.149,0.387c0.142,0.068,0.312,0.008,0.38-0.134  c0.002-0.005,0.004-0.01,0.006-0.015C219.622,217.646,219.559,217.469,219.413,217.397L219.413,217.397z M222.393,210.938  c-0.154-0.063-0.329,0.007-0.397,0.158c-0.063,0.152,0.008,0.326,0.159,0.39c0.149,0.062,0.319-0.005,0.385-0.152  C222.605,211.183,222.539,211.01,222.393,210.938z M225.375,204.488c-0.144-0.068-0.316-0.008-0.385,0.136  c0,0.001-0.001,0.002-0.001,0.003c-0.071,0.147-0.011,0.323,0.135,0.395c0.147,0.071,0.323,0.011,0.395-0.135  c0.071-0.146,0.011-0.323-0.135-0.395C225.381,204.49,225.378,204.489,225.375,204.488z M228.357,198.027  c-0.142-0.069-0.313-0.011-0.382,0.131c-0.001,0.003-0.003,0.006-0.004,0.008c-0.065,0.148,0.001,0.321,0.149,0.387  c0.134,0.072,0.301,0.023,0.373-0.111c0.005-0.009,0.009-0.018,0.013-0.028c0.066-0.146,0.002-0.318-0.144-0.385  C228.361,198.029,228.359,198.028,228.357,198.027z M234.875,210.006c-0.162-0.002-0.298,0.125-0.307,0.287  c0.001,0.164,0.135,0.297,0.299,0.297c0.152-0.001,0.279-0.116,0.295-0.268C235.168,210.157,235.04,210.017,234.875,210.006  L234.875,210.006z M235.172,202.892c-0.166-0.006-0.306,0.122-0.317,0.287c-0.003,0.159,0.119,0.293,0.278,0.307  c0.162,0.008,0.298-0.116,0.307-0.277c0-0.003,0-0.007,0-0.01C235.45,203.041,235.331,202.903,235.172,202.892z M235.449,195.778  c-0.164-0.002-0.303,0.123-0.317,0.287c-0.004,0.166,0.128,0.303,0.293,0.307c0.001,0,0.003,0,0.004,0  c0.16,0.006,0.297-0.117,0.307-0.278C235.738,195.93,235.613,195.792,235.449,195.778L235.449,195.778z M209.983,205.994  c-0.101-0.117-0.277-0.131-0.395-0.03c-0.008,0.007-0.015,0.014-0.022,0.021c-0.118,0.104-0.129,0.284-0.025,0.401  c0.002,0.002,0.003,0.004,0.005,0.005c0.104,0.12,0.286,0.133,0.406,0.028c0.003-0.003,0.007-0.006,0.01-0.009  c0.12-0.099,0.138-0.274,0.04-0.394C209.996,206.008,209.99,206.001,209.983,205.994z M215.212,201.158  c-0.112-0.12-0.301-0.127-0.422-0.015c-0.12,0.113-0.127,0.301-0.015,0.422c0.11,0.118,0.295,0.127,0.417,0.02  c0.123-0.104,0.138-0.287,0.034-0.41C215.223,201.168,215.218,201.163,215.212,201.158z M220.442,196.333  c-0.112-0.12-0.301-0.127-0.422-0.015c-0.12,0.112-0.127,0.301-0.015,0.422c0.11,0.118,0.295,0.127,0.417,0.02  c0.123-0.104,0.138-0.287,0.034-0.41C220.452,196.344,220.447,196.338,220.442,196.333L220.442,196.333z M222.255,205.518  c-0.091-0.078-0.225-0.067-0.304,0.023c-0.005,0.006-0.009,0.011-0.012,0.017c-0.07,0.099-0.047,0.236,0.049,0.307  c0.094,0.078,0.23,0.064,0.308-0.028c0.076-0.094,0.064-0.231-0.028-0.308C222.265,205.525,222.26,205.521,222.255,205.518z   M225.474,201.217c-0.099-0.077-0.241-0.058-0.317,0.04c-0.076,0.099-0.058,0.242,0.04,0.317c0.099,0.077,0.242,0.058,0.317-0.04  C225.591,201.437,225.573,201.294,225.474,201.217z M228.683,196.918c-0.101-0.068-0.237-0.051-0.317,0.039  c-0.071,0.102-0.049,0.242,0.049,0.317c0.098,0.068,0.23,0.051,0.307-0.039c0.077-0.096,0.062-0.234-0.031-0.311  C228.688,196.922,228.686,196.92,228.683,196.918L228.683,196.918z M233.329,207.707c-0.12-0.028-0.242,0.04-0.277,0.158  c-0.024,0.119,0.044,0.239,0.158,0.278c0.117,0.025,0.232-0.044,0.268-0.158c0.039-0.113-0.023-0.235-0.135-0.274  C233.338,207.71,233.334,207.708,233.329,207.707L233.329,207.707z M234.646,202.506c-0.111-0.028-0.224,0.037-0.254,0.149  c-0.002,0.007-0.003,0.012-0.004,0.02c-0.034,0.112,0.028,0.231,0.142,0.266c0.002,0.001,0.005,0.001,0.007,0.002  c0.123,0.03,0.247-0.045,0.277-0.169C234.841,202.654,234.766,202.534,234.646,202.506L234.646,202.506z M235.984,197.303  c-0.123-0.026-0.245,0.047-0.278,0.169c-0.031,0.108,0.03,0.222,0.14,0.253c0.006,0.002,0.012,0.003,0.019,0.005  c0.113,0.037,0.234-0.023,0.274-0.136c0.001-0.004,0.003-0.009,0.004-0.013C236.171,197.461,236.101,197.34,235.984,197.303  L235.984,197.303z M216.926,195.639c-0.058-0.103-0.189-0.14-0.293-0.083c-0.002,0.001-0.003,0.002-0.005,0.003  c-0.104,0.052-0.146,0.178-0.094,0.282c0.004,0.009,0.009,0.017,0.015,0.025c0.058,0.103,0.189,0.14,0.293,0.083  c0.002-0.001,0.003-0.002,0.005-0.003C216.954,195.884,216.989,195.746,216.926,195.639L216.926,195.639L216.926,195.639z   M221.542,192.905c-0.063-0.106-0.2-0.141-0.307-0.08c-0.103,0.058-0.14,0.189-0.083,0.293c0.001,0.002,0.002,0.003,0.003,0.005  c0.056,0.108,0.19,0.15,0.298,0.094c0.003-0.002,0.006-0.003,0.009-0.005C221.568,193.149,221.603,193.012,221.542,192.905  L221.542,192.905z M237.519,196.641c-0.063-0.018-0.131,0.006-0.169,0.059c-0.021,0.065,0.008,0.136,0.069,0.169  c0.061,0.025,0.132-0.004,0.157-0.066c0-0.001,0.001-0.002,0.001-0.003C237.601,196.738,237.576,196.671,237.519,196.641z   M233.131,200.306c-0.066-0.075-0.18-0.08-0.255-0.013c-0.005,0.004-0.009,0.009-0.012,0.013c-0.079,0.063-0.092,0.179-0.028,0.259  c0.005,0.007,0.011,0.013,0.018,0.019c0.075,0.078,0.197,0.082,0.277,0.01c0.079-0.066,0.09-0.185,0.023-0.265  C233.148,200.321,233.14,200.313,233.131,200.306z M236.618,196.918c-0.079-0.08-0.208-0.08-0.287,0  c-0.079,0.08-0.079,0.208,0,0.287c0.085,0.073,0.214,0.064,0.287-0.021C236.684,197.108,236.684,196.994,236.618,196.918z"/>
<linearGradient id="sweater_1_-i5" gradientUnits="userSpaceOnUse" x1="6500.8735" y1="-982.6389" x2="6194.9385" y2="-2787.6563" gradientTransform="matrix(0.0741 0 0 -0.0741 -230.5491 -0.9887)">
	<stop offset="0" style="stop-color:#23286B"/>
	<stop offset="1" style="stop-color:#151A4F"/>
</linearGradient>
<path id="sweater-i5" fill="url(#sweater_1_-i5)" d="M271.594,194.54c0,0-16.74,8.184-53.905-3.419  c-9.132-2.887-18.064-6.375-26.735-10.443l12.075-101.083c1.415-2.085,2.971-4.071,4.656-5.944c0,0-0.01-0.009,0.01-0.009  c0.317-0.356,0.634-0.704,0.951-1.04c0.05-0.064,0.107-0.124,0.169-0.178c0.327-0.337,0.644-0.673,0.961-0.992  c0.693-0.694,1.368-1.338,2.04-1.952c0.327-0.297,0.663-0.595,0.99-0.872c0.98-0.862,1.931-1.615,2.813-2.279  c0.297-0.218,0.585-0.436,0.872-0.644c1.417-1.021,2.655-1.803,3.635-2.378c0.397-0.228,0.753-0.426,1.06-0.595  c-0.079-0.198-0.158-0.397-0.218-0.595c0.09-0.059,0.188-0.129,0.277-0.198c11.386,7.779,21.025,17.848,28.3,29.566  c12.352,19.708,9.123,26.98,15.828,38.593C272.069,141.689,293.019,166.648,271.594,194.54z"/>
<path id="L_sleeve-i5" fill="#23286B" d="M236.499,169.313c-2.516,12.683-9.974,19.004-18.81,21.808  c-11.916,3.785-26.339,1.199-34.559-0.733c-14.333-3.378-17.137,1.397-29.498,4.776c-12.361,3.368-24.882-2.031-24.882-2.031  l-9.896-44.805c0,0,17.741-0.614,36.461-1.774c18.79-1.16,31.746-9.561,37.64-41.872c1.549-8.981,4.983-17.53,10.074-25.087  c1.415-2.085,2.971-4.071,4.656-5.944c0,0-0.01-0.009,0.01-0.009c0.317-0.356,0.634-0.704,0.951-1.04  c0.05-0.064,0.107-0.124,0.169-0.178c0.327-0.337,0.644-0.673,0.96-0.992c0.693-0.704,1.368-1.348,2.04-1.952  c0.327-0.297,0.663-0.595,0.99-0.872c0.98-0.862,1.931-1.615,2.813-2.279c0.297-0.218,0.585-0.436,0.872-0.644  c1.417-1.021,2.655-1.803,3.635-2.378c0.397-0.228,0.753-0.426,1.06-0.595c0.648,1.616,1.426,3.177,2.328,4.667  c8.865,14.793,6.261,20.352,6.261,20.352l6.439-1.793C239.739,109.012,240.758,147.812,236.499,169.313z"/>
<linearGradient id="R_shoe_1_-i5" gradientUnits="userSpaceOnUse" x1="3111.3237" y1="-5150.8047" x2="4430.1665" y2="-5150.8047" gradientTransform="matrix(0.0741 0 0 -0.0741 -230.5491 -0.9887)">
	<stop offset="0" style="stop-color:#28306D"/>
	<stop offset="0.51" style="stop-color:#1F275F"/>
	<stop offset="1" style="stop-color:#171F51"/>
</linearGradient>
<path id="R_shoe-i5" fill="url(#R_shoe_1_-i5)" d="M83.884,361.372H54.012c0,0-15.592,14.64-32.296,21.8C5.012,390.331,0,400,0,400  l97.726-0.003L83.884,361.372"/>
<path id="L_shoe-i5" fill="#28306D" d="M164.873,361.372l-31.765,0.001c0,0-13.699,14.638-30.404,21.799  C86.001,390.333,80.989,400,80.989,400l97.727-0.003L164.873,361.372"/>
<path id="eye-i5" fill="#1C2868" d="M181.843,32.417c1.894,3.06,6.14,2.549,7.666-0.817c0.184-0.406-0.426-0.637-0.609-0.234  c-0.69,1.885-2.779,2.855-4.664,2.162c-0.783-0.287-1.444-0.836-1.872-1.552C182.139,31.612,181.62,32.056,181.843,32.417  L181.843,32.417z"/>
<path id="hair-i5" fill="#E94A47" d="M272.829,58.628c-3.218-5.467-8.221-8.984-13.059-12.897c-5.184-4.292-9.506-9.53-12.738-15.434  c-0.84-2.689-1.745-5.908-2.826-9.885c-5.913-21.748-28.349-22.611-44.525-18.439c-15.987,4.121-19.811,14.486-15.334,25.821  c0.575-2.507,0.971-4.567,1.178-5.708l0.168-0.96c0,0,11.035,10.77,24.248,9.373c6.053-0.635,9.477,0.371,11.363,1.999  c0.951,1.98,1.256,4.211,0.87,6.373c-0.499,3.112-2.006,5.867-3.283,8.713c-1.631,3.634-2.796,7.227-2.165,11.243  c1.571,10.017,13.865,19.831,6.658,30.119c-0.459,0.654,0.615,1.274,1.069,0.625c8.723-12.454-9.25-23.895-6.246-36.628  c0.525-1.962,1.253-3.864,2.173-5.675c-0.293,0.99-0.525,1.997-0.692,3.016c-0.733,4.558-0.258,10.294,3.823,17.092  c8.865,14.793,6.261,20.352,6.261,20.352l44.861-12.524c0,0,2.268-10.087-10.777-21.917c-8.606-7.804-11.836-10.157-14.736-17.095  c1.239,1.786,2.588,3.492,4.041,5.111c4.252,4.718,9.825,7.879,14.268,12.372c5.616,5.715,8.575,13.524,8.16,21.527  c-0.028,0.797,1.21,0.796,1.238,0C277.119,69.406,275.73,63.652,272.829,58.628z"/>

            </g>
        </g>
    </g>
    
    <!-- ITEM 6 -->
    <g>
        <defs>
            <clipPath id="clip-path-id-viewbox-item-6">
                <rect x="0.0" y="0.0" width="269.0" height="545.0"/>
            </clipPath>
        </defs>
        <g transform="translate(49.0 101.0) rotate(0.0 252.5 512.5) scale(1.8773234200743494 1.8807339449541285)">
            <g clip-path="url(#clip-path-id-viewbox-item-6)" transform="translate(-0.0 -0.0)">
                
<linearGradient id="R_shoe-2_1_-i6" gradientUnits="userSpaceOnUse" x1="4952.2544" y1="7469.3115" x2="7138.6963" y2="8349.9619" gradientTransform="matrix(0.0741 0 0 0.0741 -230.5491 -49.4972)">
	<stop offset="0" style="stop-color:#23286B"/>
	<stop offset="0.6454" style="stop-color:#1A1F59"/>
	<stop offset="1" style="stop-color:#151A4F"/>
</linearGradient>
<path id="R_shoe-2-i6" fill="url(#R_shoe-2_1_-i6)" d="M244.06,525.126c-17.269-7.612-33.525-22.476-36.595-25.35h-34.948l-15.76,45.218  L269,544.998C269.001,544.999,263.246,533.583,244.06,525.126z"/>
<linearGradient id="L_shoe-2_1_-i6" gradientUnits="userSpaceOnUse" x1="3118.77" y1="7614.4131" x2="5613.0654" y2="8143.5063" gradientTransform="matrix(0.0741 0 0 0.0741 -230.5491 -49.4972)">
	<stop offset="0" style="stop-color:#23286B"/>
	<stop offset="0.6454" style="stop-color:#1A1F59"/>
	<stop offset="1" style="stop-color:#151A4F"/>
</linearGradient>
<path id="L_shoe-2-i6" fill="url(#L_shoe-2_1_-i6)" d="M98.214,525.126c-17.272-7.613-32.635-22.375-35.35-25.244l-36.226-0.002  l-15.726,45.115L123.155,545C123.155,544.999,117.398,533.583,98.214,525.126z"/>
<linearGradient id="L_trousers-2_1_-i6" gradientUnits="userSpaceOnUse" x1="3228.2839" y1="5197.6948" x2="4769.418" y2="5197.6948" gradientTransform="matrix(0.0741 0 0 0.0741 -230.5491 -49.4972)">
	<stop offset="0.1291" style="stop-color:#428DFC"/>
	<stop offset="0.9987" style="stop-color:#1D72D8"/>
</linearGradient>
<path id="L_trousers-2-i6" fill="url(#L_trousers-2_1_-i6)" d="M61.386,171.42l-3.744,14.285c-9.749,26.258-11.717,54.757-5.673,82.099  c14.794,68.547,0.357,63.837-8.62,83.146c-9.014,19.292-13.987,31.15-14.305,50.258c-0.295,19.124-7.826,13.245-14.603,37.271  c-5.955,21.208-5.933,54.091-5.705,61.403l54.127,0.002c12.595-24.136,48.544-126.633,53.47-151.853  c4.443-22.794,6.199-49.416,6.282-73.85l0.249-74.141L61.386,171.42z"/>
<path id="R_trousers-2-i6" fill="#428DFC" d="M147.55,499.805c0.186-0.007,0.362-0.028,0.553-0.028h59.364  c-5.57-20.288-31.459-115.441-42.506-149.114c-11.07-33.742-28.627-83.519-38.493-106.777c-9.826-13.737-9.632-14.003-16.157-21.865  c-11.73-14.134-23.67-17.11-27.853-34.737c-13.228-2.202-30.589-10.048-43.828-16.842c-0.897,2.22-17.948,46.077,12.689,99.963  c31.448,55.3,29.838,46.566,40.893,89.203c11.062,42.652,2.621,15.861,18.294,59.215C122.347,451.574,121.98,477.074,147.55,499.805  z"/>
<path id="texture-2-i6" opacity="0.86" fill="#FFFFFF" enable-background="new    " d="M59.225,209.331  c0.048,0.133,0.196,0.201,0.328,0.153c0.003-0.002,0.005-0.002,0.008-0.003c0.13-0.059,0.189-0.212,0.129-0.342l0,0  c-0.048-0.133-0.196-0.201-0.328-0.153c-0.003,0.002-0.005,0.002-0.008,0.003C59.229,209.053,59.172,209.202,59.225,209.331z   M64.948,206.912c0.048,0.133,0.196,0.201,0.328,0.153c0.003-0.002,0.005-0.002,0.008-0.003c0.134-0.056,0.199-0.209,0.146-0.346  c-0.048-0.133-0.196-0.201-0.328-0.153c-0.003,0.002-0.005,0.002-0.007,0.003C64.963,206.627,64.9,206.776,64.948,206.912  L64.948,206.912z M70.688,204.49c0.037,0.126,0.172,0.198,0.298,0.159c0.007-0.003,0.013-0.004,0.02-0.007  c0.134-0.056,0.199-0.209,0.146-0.346c-0.048-0.133-0.196-0.201-0.328-0.153c-0.003,0.002-0.005,0.002-0.007,0.003  c-0.126,0.05-0.19,0.192-0.14,0.319C70.68,204.474,70.684,204.482,70.688,204.49z M77.741,228.496  c0.126,0.055,0.275-0.003,0.33-0.13c0.002-0.003,0.003-0.005,0.003-0.008c0.055-0.131-0.004-0.283-0.133-0.342  c-0.126-0.055-0.275,0.004-0.33,0.13c-0.002,0.003-0.003,0.005-0.003,0.008C77.551,228.286,77.61,228.437,77.741,228.496  L77.741,228.496z M80.123,222.621c0.135,0.052,0.288-0.008,0.35-0.14c0.048-0.135-0.018-0.284-0.15-0.339  c-0.117-0.059-0.26-0.012-0.319,0.103c-0.005,0.011-0.011,0.023-0.013,0.034C79.936,222.41,79.995,222.561,80.123,222.621z   M82.524,216.744c0.126,0.055,0.275-0.004,0.33-0.13c0.002-0.003,0.003-0.005,0.003-0.008c0.052-0.137-0.007-0.291-0.135-0.359  c-0.14-0.046-0.291,0.023-0.347,0.158C82.325,216.54,82.39,216.689,82.524,216.744L82.524,216.744z M103.68,228.428  c0.048,0.133,0.196,0.201,0.328,0.153c0.003-0.002,0.005-0.002,0.007-0.003c0.133-0.064,0.189-0.224,0.124-0.357  c-0.056-0.115-0.189-0.174-0.313-0.14C103.692,228.14,103.627,228.292,103.68,228.428L103.68,228.428z M68.833,218.188  c0.082,0.098,0.228,0.111,0.325,0.03c0.009-0.008,0.018-0.016,0.025-0.024c0.101-0.092,0.107-0.249,0.015-0.35  c-0.004-0.004-0.007-0.007-0.011-0.011c-0.082-0.098-0.228-0.111-0.325-0.03c-0.009,0.008-0.018,0.016-0.025,0.024  c-0.101,0.092-0.107,0.249-0.015,0.35C68.824,218.181,68.829,218.184,68.833,218.188L68.833,218.188z M73.225,213.704  c0.074,0.08,0.196,0.094,0.285,0.032l0.018-0.003c0.019,0,0.037-0.009,0.05-0.025c0.06-0.059,0.089-0.143,0.074-0.227  c-0.009-0.056-0.034-0.11-0.072-0.152c-0.092-0.098-0.249-0.102-0.347-0.008c-0.002,0.002-0.003,0.003-0.004,0.004  c-0.105,0.103-0.106,0.272-0.004,0.377C73.224,213.703,73.225,213.703,73.225,213.704L73.225,213.704z M77.619,209.219  c0.097,0.092,0.25,0.09,0.343-0.007c0.003-0.003,0.004-0.004,0.007-0.007c0.101-0.091,0.108-0.247,0.018-0.347  c-0.004-0.005-0.009-0.009-0.013-0.013c-0.082-0.098-0.228-0.111-0.325-0.03c-0.009,0.008-0.018,0.016-0.025,0.024  c-0.104,0.103-0.106,0.272-0.003,0.377C77.617,209.219,77.619,209.219,77.619,209.219L77.619,209.219z M90.541,227.594  c0.007,0.143,0.12,0.259,0.264,0.269c0.149-0.005,0.266-0.131,0.261-0.28c-0.005-0.142-0.12-0.257-0.264-0.26  C90.659,227.334,90.548,227.45,90.541,227.594L90.541,227.594z M43.991,230.072c0.162,0.201,0.458,0.234,0.662,0.071  c0.009-0.008,0.019-0.016,0.028-0.025c0.201-0.18,0.221-0.487,0.047-0.692c-0.162-0.201-0.458-0.234-0.662-0.071  c-0.009,0.008-0.019,0.016-0.028,0.025C43.84,229.561,43.818,229.867,43.991,230.072L43.991,230.072z M52.849,222.158  c0.165,0.202,0.462,0.232,0.666,0.067c0.008-0.007,0.016-0.013,0.024-0.021c0.209-0.184,0.229-0.501,0.044-0.71  c-0.162-0.198-0.456-0.227-0.655-0.064c-0.007,0.005-0.012,0.011-0.019,0.016C52.71,221.631,52.683,221.94,52.849,222.158  L52.849,222.158z M61.726,214.241c0.174,0.202,0.481,0.225,0.685,0.051c0.003-0.002,0.004-0.004,0.007-0.005  c0.199-0.188,0.22-0.499,0.044-0.71c-0.178-0.202-0.485-0.224-0.689-0.047l-0.002,0.002  C61.563,213.715,61.543,214.031,61.726,214.241L61.726,214.241z M70.585,206.326c0.133,0.143,0.341,0.193,0.525,0.124  c0.062-0.008,0.119-0.035,0.165-0.078c0.074-0.067,0.122-0.157,0.141-0.255l0.018-0.003c0.04-0.161-0.003-0.33-0.113-0.453  c-0.162-0.201-0.458-0.234-0.662-0.071c-0.009,0.008-0.019,0.016-0.028,0.025C70.43,205.804,70.409,206.115,70.585,206.326  L70.585,206.326z M79.236,260.325c-0.018,0.271,0.186,0.507,0.457,0.529c0.26,0.025,0.49-0.163,0.516-0.422  c0.002-0.009,0.002-0.02,0.002-0.03c0.018-0.271-0.186-0.507-0.457-0.529c-0.268-0.019-0.498,0.182-0.517,0.449  C79.236,260.322,79.236,260.323,79.236,260.325L79.236,260.325z M80.054,248.29c-0.024,0.267,0.172,0.504,0.441,0.528  c0.268,0.024,0.505-0.172,0.53-0.44c0.002-0.009,0.002-0.02,0.002-0.03c0.025-0.268-0.17-0.506-0.44-0.533  C80.312,247.812,80.081,248.017,80.054,248.29L80.054,248.29z M80.886,236.234c-0.024,0.268,0.173,0.504,0.442,0.528  c0.005,0,0.009,0.002,0.015,0.002c0.26,0.025,0.49-0.163,0.516-0.423c0.002-0.009,0.002-0.02,0.002-0.03  c0.012-0.274-0.187-0.511-0.459-0.549C81.129,235.754,80.899,235.963,80.886,236.234L80.886,236.234z M81.704,224.199  c-0.025,0.267,0.172,0.504,0.44,0.528c0.268,0.024,0.505-0.172,0.53-0.439c0.002-0.009,0.002-0.02,0.002-0.03  c0.027-0.267-0.168-0.506-0.437-0.533c-0.268-0.027-0.507,0.168-0.535,0.436C81.705,224.175,81.704,224.187,81.704,224.199z   M38.633,209.269c0.078,0.252,0.347,0.393,0.6,0.315c0.007-0.003,0.013-0.004,0.02-0.007c0.258-0.094,0.392-0.379,0.3-0.638  c-0.085-0.255-0.36-0.394-0.616-0.31c-0.002,0-0.003,0.002-0.004,0.002C38.675,208.726,38.54,209.01,38.633,209.269z   M49.775,205.429c0.076,0.257,0.347,0.405,0.605,0.329c0.256-0.098,0.387-0.379,0.3-0.638c-0.069-0.245-0.323-0.389-0.569-0.322  c-0.011,0.003-0.023,0.007-0.034,0.011c-0.253,0.085-0.39,0.357-0.307,0.61C49.774,205.422,49.775,205.426,49.775,205.429z   M56.924,248.516c0.23,0.124,0.516,0.037,0.64-0.192c0.005-0.009,0.009-0.019,0.013-0.028c0.119-0.248,0.018-0.547-0.23-0.671  c-0.231-0.124-0.519-0.035-0.643,0.196c-0.004,0.008-0.008,0.016-0.012,0.024C56.58,248.095,56.681,248.389,56.924,248.516  L56.924,248.516z M62.167,237.709c0.23,0.124,0.516,0.037,0.64-0.19c0.005-0.009,0.009-0.019,0.013-0.028  c0.12-0.248,0.018-0.547-0.23-0.671c-0.231-0.124-0.518-0.035-0.643,0.196c-0.004,0.008-0.008,0.016-0.012,0.024  C61.823,237.288,61.923,237.582,62.167,237.709L62.167,237.709z M67.413,226.919c0.247,0.113,0.537,0.007,0.652-0.237  c0.117-0.245,0.024-0.539-0.214-0.673c-0.248-0.119-0.545-0.02-0.671,0.221C67.07,226.486,67.169,226.782,67.413,226.919  L67.413,226.919z M72.653,216.094c0.23,0.124,0.516,0.037,0.64-0.192c0.005-0.009,0.009-0.019,0.013-0.028  c0.115-0.246,0.023-0.539-0.214-0.673c-0.245-0.114-0.536-0.009-0.651,0.234c0,0.002-0.002,0.003-0.002,0.003  c-0.125,0.233-0.036,0.524,0.198,0.649C72.645,216.088,72.649,216.091,72.653,216.094z M101.469,251.859  c0.083,0.255,0.358,0.394,0.613,0.311c0.256-0.083,0.395-0.357,0.312-0.611c-0.002-0.004-0.003-0.007-0.004-0.011  c-0.059-0.248-0.309-0.402-0.558-0.342c-0.016,0.004-0.032,0.008-0.047,0.013C101.532,251.321,101.396,251.597,101.469,251.859z   M97.752,240.398c0.075,0.257,0.346,0.406,0.604,0.331c0.258-0.075,0.407-0.345,0.332-0.602c-0.004-0.013-0.008-0.028-0.013-0.042  c-0.078-0.252-0.347-0.393-0.6-0.315c-0.007,0.003-0.013,0.004-0.02,0.007C97.8,239.867,97.666,240.143,97.752,240.398  L97.752,240.398z M94.039,228.954c0.069,0.246,0.323,0.389,0.57,0.322c0.011-0.003,0.023-0.007,0.034-0.011  c0.263-0.086,0.406-0.366,0.321-0.629c-0.002-0.004-0.003-0.008-0.004-0.012c-0.085-0.255-0.36-0.394-0.616-0.31  c-0.002,0-0.003,0.002-0.004,0.002C94.083,228.414,93.95,228.695,94.039,228.954z M31.941,203.441  c0.07-0.097,0.098-0.219,0.078-0.335c-0.02-0.07-0.059-0.133-0.111-0.182C31.927,203.083,31.934,203.263,31.941,203.441  L31.941,203.441z M41.38,200.89c0.051,0.23,0.28,0.377,0.511,0.326c0.231-0.051,0.378-0.279,0.327-0.51  c-0.002-0.008-0.004-0.016-0.007-0.024c-0.036-0.221-0.247-0.372-0.468-0.334c-0.016,0.003-0.032,0.007-0.048,0.011  c-0.231,0.056-0.374,0.29-0.318,0.522C41.379,200.883,41.379,200.887,41.38,200.89L41.38,200.89z M46.759,242.949  c0.199,0.126,0.462,0.069,0.589-0.13c0.002-0.003,0.004-0.005,0.005-0.009c0.133-0.204,0.075-0.474-0.127-0.607  c-0.003-0.002-0.004-0.003-0.007-0.004c-0.19-0.129-0.447-0.08-0.577,0.108c-0.007,0.009-0.013,0.02-0.019,0.03  C46.5,242.545,46.559,242.812,46.759,242.949L46.759,242.949z M52.315,233.81c0.201,0.126,0.463,0.067,0.591-0.133  c0.002-0.003,0.003-0.004,0.004-0.007c0.133-0.212,0.071-0.491-0.137-0.63c-0.206-0.12-0.47-0.051-0.592,0.154l-0.002,0.002  c-0.131,0.205-0.072,0.479,0.133,0.611C52.314,233.81,52.315,233.81,52.315,233.81L52.315,233.81z M57.695,224.407  c0.016,0.11,0.08,0.207,0.176,0.263c0.201,0.126,0.463,0.067,0.591-0.133c0.002-0.003,0.003-0.004,0.004-0.007  c0.133-0.212,0.071-0.491-0.137-0.63c-0.12-0.08-0.276-0.092-0.407-0.032l-0.018,0.003c-0.076,0.031-0.138,0.092-0.17,0.169  C57.66,224.149,57.645,224.286,57.695,224.407L57.695,224.407z M63.425,215.531c0.205,0.118,0.463,0.056,0.595-0.14  c0.124-0.213,0.064-0.487-0.137-0.63c-0.199-0.126-0.462-0.069-0.589,0.13c-0.002,0.003-0.004,0.005-0.005,0.009  C63.156,215.115,63.216,215.393,63.425,215.531L63.425,215.531z M68.98,206.393c0.206,0.12,0.47,0.051,0.592-0.154l0.002-0.002  c0.124-0.208,0.064-0.474-0.134-0.611c-0.209-0.126-0.48-0.064-0.612,0.141C68.709,205.982,68.775,206.253,68.98,206.393  L68.98,206.393z M90.069,250.146c0.059,0.239,0.296,0.388,0.537,0.338c0.24-0.069,0.376-0.317,0.308-0.555  c-0.063-0.221-0.285-0.359-0.513-0.318C90.169,249.679,90.025,249.909,90.069,250.146L90.069,250.146z M87.729,239.66  c0.072,0.225,0.316,0.349,0.541,0.275c0.226-0.072,0.35-0.315,0.276-0.539c-0.069-0.212-0.288-0.335-0.505-0.285  C87.807,239.182,87.67,239.424,87.729,239.66L87.729,239.66z M85.366,229.141c0.044,0.234,0.269,0.388,0.504,0.345  c0.005-0.002,0.011-0.003,0.016-0.003c0.228-0.05,0.371-0.272,0.323-0.499c-0.003-0.011-0.005-0.021-0.008-0.032  c-0.044-0.234-0.269-0.388-0.504-0.345c-0.005,0.002-0.011,0.003-0.016,0.003C85.452,228.677,85.315,228.909,85.366,229.141  L85.366,229.141z M83.009,218.658c0.052,0.23,0.282,0.375,0.513,0.323c0.002,0,0.002,0,0.003,0c0.24-0.056,0.387-0.295,0.331-0.534  c-0.055-0.233-0.282-0.382-0.518-0.34C83.101,218.177,82.958,218.417,83.009,218.658L83.009,218.658z M42.377,217.157  c0.127,0.192,0.387,0.243,0.579,0.115c0.011-0.007,0.02-0.015,0.03-0.021c0.194-0.138,0.238-0.407,0.099-0.601  c-0.002-0.003-0.004-0.005-0.005-0.008c-0.125-0.197-0.387-0.255-0.584-0.13c-0.009,0.005-0.019,0.012-0.027,0.019  C42.279,216.685,42.239,216.957,42.377,217.157L42.377,217.157z M50.914,210.894c0.129,0.195,0.391,0.248,0.586,0.119  c0.003-0.002,0.005-0.004,0.008-0.005c0.199-0.147,0.247-0.424,0.108-0.629c-0.14-0.195-0.41-0.244-0.611-0.111  C50.81,210.418,50.771,210.694,50.914,210.894L50.914,210.894z M59.433,204.632c0.131,0.198,0.401,0.252,0.6,0.119  c0.004-0.003,0.008-0.005,0.012-0.008c0.191-0.152,0.237-0.423,0.108-0.629c-0.134-0.192-0.399-0.24-0.593-0.106  c-0.005,0.004-0.011,0.008-0.016,0.012c-0.199,0.137-0.25,0.407-0.113,0.607C59.432,204.629,59.433,204.63,59.433,204.632  L59.433,204.632z M67.597,245.231c-0.035,0.24,0.127,0.464,0.366,0.507c0.234,0.039,0.456-0.12,0.495-0.354  c0-0.002,0-0.003,0.002-0.005c0.037-0.24-0.115-0.469-0.351-0.527C67.862,244.817,67.634,244.985,67.597,245.231L67.597,245.231z   M69.339,234.597c-0.048,0.23,0.101,0.458,0.332,0.507c0.231,0.048,0.459-0.101,0.508-0.331c0.002-0.008,0.003-0.016,0.004-0.024  c0.037-0.24-0.115-0.469-0.351-0.527C69.592,234.189,69.372,234.357,69.339,234.597L69.339,234.597z M71.064,223.964  c-0.043,0.236,0.113,0.462,0.35,0.51c0.242,0.034,0.465-0.134,0.497-0.375c0.032-0.23-0.122-0.448-0.352-0.492  c-0.226-0.044-0.445,0.102-0.49,0.327C71.067,223.943,71.066,223.954,71.064,223.964L71.064,223.964z M72.79,213.333  c-0.043,0.236,0.113,0.462,0.35,0.51c0.134,0.028,0.273-0.012,0.371-0.107l0.018-0.003c0.064-0.071,0.107-0.158,0.124-0.252  c0.035-0.24-0.127-0.464-0.366-0.507c-0.234-0.039-0.456,0.119-0.495,0.354C72.79,213.33,72.79,213.331,72.79,213.333L72.79,213.333  z M106.834,236.616c0.119,0.186,0.368,0.241,0.557,0.122c0.012-0.008,0.024-0.016,0.035-0.025c0.203-0.143,0.252-0.425,0.108-0.629  c-0.142-0.193-0.414-0.235-0.609-0.094C106.727,236.137,106.686,236.416,106.834,236.616  C106.832,236.616,106.834,236.616,106.834,236.616L106.834,236.616z M100.743,227.837c0.137,0.198,0.408,0.249,0.608,0.114  c0.002-0.002,0.003-0.002,0.003-0.003c0.196-0.15,0.235-0.426,0.091-0.626c-0.129-0.195-0.391-0.248-0.586-0.119  c-0.003,0.002-0.005,0.004-0.008,0.005c-0.203,0.141-0.254,0.42-0.113,0.622C100.74,227.832,100.741,227.834,100.743,227.837  L100.743,227.837z M47.443,216.237c0.106,0.095,0.269,0.089,0.366-0.016c0.092-0.111,0.086-0.274-0.016-0.377  c-0.106-0.095-0.269-0.089-0.366,0.016C47.336,215.973,47.342,216.134,47.443,216.237L47.443,216.237z M51.657,211.599  c0.106,0.094,0.269,0.087,0.366-0.016c0.091-0.111,0.085-0.274-0.016-0.377c-0.106-0.095-0.269-0.089-0.366,0.016  C51.55,211.333,51.557,211.496,51.657,211.599L51.657,211.599z M55.888,206.94c0.097,0.092,0.25,0.09,0.343-0.007  c0.003-0.003,0.004-0.004,0.005-0.007c0.101-0.095,0.105-0.255,0.008-0.354c-0.008-0.008-0.016-0.015-0.024-0.023  c-0.097-0.092-0.25-0.09-0.343,0.007c-0.003,0.003-0.004,0.004-0.007,0.007c-0.101,0.098-0.102,0.257-0.005,0.358  C55.873,206.928,55.879,206.933,55.888,206.94L55.888,206.94z M60.102,202.3c0.097,0.092,0.25,0.09,0.343-0.007  c0.003-0.003,0.004-0.004,0.005-0.007c0.105-0.105,0.106-0.274,0.002-0.379c-0.106-0.094-0.268-0.086-0.366,0.016  C59.994,202.035,60.001,202.197,60.102,202.3L60.102,202.3z M71.737,225.438c0.009,0.14,0.13,0.244,0.269,0.236  c0.138-0.008,0.245-0.13,0.237-0.268c-0.009-0.135-0.125-0.24-0.261-0.236c-0.141,0.007-0.252,0.126-0.245,0.267  C71.736,225.436,71.736,225.436,71.737,225.438L71.737,225.438z M71.513,219.086c0.011,0.145,0.134,0.253,0.279,0.249  c0.142-0.007,0.252-0.127,0.245-0.269c0.003-0.135-0.105-0.248-0.241-0.252c-0.007,0-0.013,0-0.02,0  c-0.145,0.002-0.264,0.12-0.263,0.265C71.513,219.082,71.513,219.085,71.513,219.086L71.513,219.086z M71.307,212.733  c0.002,0.14,0.114,0.252,0.254,0.251c0.14-0.002,0.253-0.114,0.252-0.253c0-0.005,0-0.011,0-0.015  c0.003-0.135-0.105-0.248-0.241-0.252c-0.007,0-0.013,0-0.02,0C71.409,212.471,71.3,212.591,71.307,212.733L71.307,212.733z   M71.099,206.379l0.009,0.071c0.04,0.106,0.14,0.177,0.253,0.181c0.142-0.007,0.252-0.127,0.245-0.269  c-0.005-0.108-0.072-0.205-0.173-0.245l-0.018,0.003c-0.021-0.011-0.047-0.014-0.071-0.008c-0.137,0.002-0.248,0.114-0.245,0.251  C71.099,206.367,71.099,206.372,71.099,206.379L71.099,206.379z M42.438,203.282c0.058,0.126,0.205,0.185,0.334,0.133  c0.127-0.071,0.183-0.225,0.126-0.361c-0.05-0.126-0.191-0.189-0.318-0.14c-0.005,0.003-0.011,0.004-0.016,0.007  C42.437,202.992,42.382,203.148,42.438,203.282L42.438,203.282z M48.062,200.643c0.055,0.129,0.205,0.189,0.334,0.134  c0.129-0.055,0.19-0.204,0.134-0.333c-0.002-0.004-0.003-0.008-0.005-0.011c-0.04-0.122-0.172-0.189-0.296-0.149  c-0.013,0.004-0.025,0.009-0.037,0.016C48.061,200.359,48.003,200.512,48.062,200.643C48.062,200.642,48.062,200.642,48.062,200.643  L48.062,200.643z M59.736,220.168c0.133,0.04,0.276-0.027,0.33-0.156c0.053-0.133-0.011-0.283-0.143-0.336  c-0.003-0.002-0.005-0.002-0.007-0.003c-0.122-0.053-0.266,0.003-0.319,0.126c-0.004,0.009-0.008,0.02-0.011,0.03  C59.537,219.963,59.603,220.113,59.736,220.168L59.736,220.168z M61.915,214.214c0.137,0.047,0.288-0.027,0.335-0.163  c0.046-0.134-0.023-0.28-0.156-0.33c-0.12-0.058-0.266-0.005-0.323,0.115c-0.004,0.007-0.007,0.015-0.009,0.023  c-0.058,0.137,0.007,0.295,0.143,0.352C61.909,214.211,61.913,214.212,61.915,214.214L61.915,214.214z M64.075,208.244  c0.122,0.053,0.267-0.003,0.319-0.125c0.004-0.009,0.008-0.02,0.011-0.03c0.048-0.135-0.018-0.284-0.15-0.339  c-0.133-0.04-0.276,0.027-0.33,0.156c-0.053,0.133,0.011,0.283,0.143,0.336C64.07,208.243,64.072,208.243,64.075,208.244z   M83.247,219.381c0.05,0.126,0.193,0.189,0.319,0.14c0.005-0.002,0.011-0.004,0.015-0.007c0.13-0.059,0.189-0.212,0.129-0.342  c0,0,0,0,0-0.002c-0.04-0.122-0.172-0.189-0.296-0.149c-0.013,0.004-0.025,0.009-0.037,0.016  C83.246,219.097,83.188,219.251,83.247,219.381L83.247,219.381L83.247,219.381z M80.681,213.598c0.06,0.133,0.217,0.19,0.348,0.131  c0.002,0,0.002,0,0.002-0.002c0.124-0.064,0.173-0.216,0.111-0.34c-0.04-0.122-0.172-0.189-0.296-0.149  c-0.013,0.004-0.025,0.009-0.037,0.016C80.679,213.314,80.621,213.467,80.681,213.598L80.681,213.598L80.681,213.598z   M32.798,195.746c0.034,0.156,0.189,0.255,0.344,0.221h0.002c0.158-0.04,0.261-0.196,0.233-0.358  c-0.036-0.158-0.197-0.257-0.355-0.221c-0.003,0-0.005,0.002-0.008,0.002c-0.156,0.035-0.253,0.19-0.218,0.345  C32.796,195.74,32.797,195.744,32.798,195.746L32.798,195.746z M43.031,222.545c0.126,0.085,0.296,0.051,0.38-0.075  c0.004-0.005,0.007-0.011,0.011-0.018c0.091-0.137,0.055-0.322-0.082-0.414c-0.003-0.002-0.007-0.004-0.009-0.005  c-0.126-0.085-0.296-0.051-0.38,0.075c-0.004,0.005-0.007,0.011-0.011,0.018C42.855,222.268,42.895,222.451,43.031,222.545  L43.031,222.545z M46.82,216.434c0.137,0.087,0.32,0.046,0.406-0.091c0-0.002,0.002-0.002,0.002-0.003  c0.085-0.142,0.044-0.326-0.091-0.42c-0.126-0.085-0.296-0.051-0.38,0.075c-0.004,0.005-0.007,0.011-0.011,0.018  c-0.097,0.133-0.069,0.319,0.064,0.416C46.814,216.43,46.818,216.433,46.82,216.434L46.82,216.434z M50.626,210.321  c0.124,0.072,0.281,0.05,0.378-0.053c0.015-0.02,0.032-0.023,0.03-0.04c0.085-0.142,0.046-0.326-0.091-0.42  c-0.137-0.087-0.32-0.046-0.406,0.091c0,0.002-0.002,0.002-0.002,0.003C50.45,210.044,50.491,210.227,50.626,210.321L50.626,210.321  z M54.433,204.207c0.137,0.087,0.32,0.046,0.406-0.091c0-0.002,0.002-0.002,0.002-0.003c0.085-0.142,0.044-0.326-0.091-0.42  c-0.083-0.059-0.194-0.064-0.283-0.013c-0.035,0.005-0.05,0.025-0.066,0.028l-0.059,0.08  C54.256,203.929,54.295,204.113,54.433,204.207L54.433,204.207z M72.148,227.722c0.021,0.147,0.158,0.251,0.307,0.229  c0.013-0.002,0.025-0.004,0.037-0.008c0.156-0.042,0.252-0.198,0.215-0.356c-0.039-0.156-0.189-0.259-0.348-0.239  C72.201,227.395,72.105,227.561,72.148,227.722L72.148,227.722z M70.617,220.639c0.036,0.158,0.196,0.257,0.355,0.221  c0.003,0,0.005-0.002,0.008-0.002c0.156-0.042,0.252-0.198,0.215-0.356c-0.039-0.156-0.189-0.259-0.348-0.239  C70.687,220.312,70.587,220.474,70.617,220.639L70.617,220.639z M69.118,213.531c0.013,0.15,0.147,0.262,0.298,0.248  c0.016-0.002,0.032-0.004,0.048-0.009c0.156-0.042,0.252-0.198,0.215-0.356c-0.039-0.156-0.189-0.259-0.348-0.239  C69.177,213.218,69.082,213.374,69.118,213.531L69.118,213.531z M67.602,206.443c0.013,0.15,0.147,0.262,0.298,0.248  c0.016-0.002,0.032-0.004,0.048-0.009c0.156-0.042,0.252-0.198,0.215-0.356c-0.032-0.159-0.187-0.265-0.348-0.239  C67.662,206.13,67.565,206.287,67.602,206.443L67.602,206.443z M34.989,209.175c0.08,0.135,0.257,0.18,0.392,0.099  c0.008-0.004,0.015-0.009,0.021-0.015c0.125-0.105,0.153-0.285,0.066-0.424c-0.087-0.131-0.264-0.166-0.395-0.08  c-0.005,0.004-0.012,0.008-0.018,0.012C34.931,208.864,34.901,209.042,34.989,209.175L34.989,209.175z M40.78,205.033  c0.086,0.127,0.26,0.161,0.389,0.075c0.003-0.002,0.005-0.003,0.007-0.005c0.141-0.094,0.18-0.284,0.085-0.424  c0-0.002-0.002-0.002-0.002-0.003c-0.094-0.133-0.279-0.162-0.411-0.069l-0.002,0.002C40.716,204.711,40.688,204.896,40.78,205.033  L40.78,205.033z M46.567,200.873c0.075,0.126,0.24,0.166,0.366,0.091c0.011-0.007,0.02-0.014,0.03-0.021  c0.135-0.086,0.176-0.265,0.09-0.401c-0.002-0.003-0.003-0.005-0.005-0.007c-0.092-0.134-0.276-0.172-0.414-0.086  C46.508,200.554,46.48,200.736,46.567,200.873L46.567,200.873z M57.695,224.407c0.034,0.025,0.072,0.044,0.113,0.056  c0.156,0.028,0.305-0.076,0.334-0.232c0.002-0.004,0.002-0.009,0.003-0.014c0.025-0.156-0.07-0.306-0.222-0.347l-0.018,0.003  c-0.156-0.028-0.305,0.076-0.334,0.232c-0.002,0.004-0.002,0.009-0.003,0.014C57.546,224.232,57.595,224.346,57.695,224.407  L57.695,224.407z M58.813,216.964c-0.035,0.157,0.064,0.312,0.222,0.347c0.159,0.028,0.316-0.072,0.355-0.23  c0.023-0.163-0.08-0.319-0.242-0.362C58.989,216.693,58.839,216.803,58.813,216.964C58.813,216.963,58.813,216.963,58.813,216.964  L58.813,216.964z M60.045,209.828c-0.031,0.159,0.074,0.312,0.234,0.343c0.002,0,0.004,0.002,0.005,0.002  c0.156,0.028,0.305-0.076,0.334-0.232c0.002-0.004,0.002-0.009,0.003-0.013c0.031-0.159-0.074-0.314-0.234-0.343  c-0.002,0-0.004,0-0.005-0.002c-0.156-0.028-0.305,0.076-0.334,0.232C60.047,209.818,60.047,209.822,60.045,209.828L60.045,209.828z   M61.274,202.675c-0.027,0.161,0.079,0.314,0.24,0.345c0.145,0.037,0.293-0.05,0.331-0.195c0.003-0.011,0.005-0.023,0.007-0.034  c0.035-0.157-0.064-0.312-0.222-0.347c-0.159-0.035-0.318,0.064-0.353,0.224C61.275,202.669,61.274,202.672,61.274,202.675  L61.274,202.675z M84.036,218.602c0.086,0.131,0.264,0.166,0.394,0.08c0.007-0.004,0.012-0.008,0.018-0.013  c0.127-0.095,0.157-0.275,0.069-0.406c-0.074-0.131-0.241-0.179-0.371-0.105c-0.009,0.005-0.018,0.011-0.025,0.016  C83.983,218.274,83.946,218.46,84.036,218.602L84.036,218.602z M80.01,212.648c0.075,0.126,0.24,0.166,0.366,0.091  c0.011-0.007,0.02-0.014,0.03-0.021c0.135-0.086,0.176-0.265,0.09-0.401c-0.002-0.003-0.003-0.005-0.005-0.008  c-0.089-0.137-0.272-0.177-0.408-0.09c-0.002,0.002-0.004,0.003-0.005,0.004C79.943,212.324,79.912,212.512,80.01,212.648  L80.01,212.648z M75.964,206.697c0.083,0.13,0.257,0.169,0.387,0.086c0.008-0.005,0.018-0.012,0.025-0.018  c0.127-0.095,0.157-0.275,0.069-0.406c-0.08-0.135-0.257-0.18-0.392-0.099c-0.008,0.004-0.015,0.009-0.021,0.015  C75.906,206.378,75.877,206.559,75.964,206.697L75.964,206.697z M32.513,205.487c0.152,0.217,0.452,0.271,0.669,0.119  c0.009-0.007,0.018-0.014,0.027-0.02c0.23-0.168,0.281-0.489,0.114-0.72c-0.157-0.224-0.468-0.279-0.692-0.122  c-0.003,0.002-0.004,0.003-0.007,0.004C32.403,204.931,32.354,205.25,32.513,205.487L32.513,205.487z M42.29,198.147  c0.15,0.223,0.453,0.283,0.676,0.133c0.008-0.005,0.016-0.011,0.023-0.016c0.23-0.168,0.281-0.489,0.113-0.72  c-0.157-0.224-0.468-0.279-0.692-0.122c-0.003,0.002-0.004,0.003-0.007,0.004C42.184,197.6,42.136,197.913,42.29,198.147  L42.29,198.147z M46.546,254.393c-0.035,0.279,0.153,0.536,0.43,0.587c0.276,0.042,0.533-0.147,0.575-0.421c0-0.002,0-0.002,0-0.003  c0.039-0.279-0.152-0.539-0.43-0.587c-0.276-0.042-0.533,0.147-0.575,0.421C46.546,254.392,46.546,254.393,46.546,254.393  L46.546,254.393z M48.433,242.097c-0.05,0.275,0.133,0.539,0.408,0.59c0.002,0,0.003,0,0.004,0c0.27,0.046,0.528-0.137,0.572-0.407  c0.002-0.005,0.002-0.011,0.003-0.018c0.053-0.271-0.122-0.534-0.392-0.587c-0.272-0.053-0.536,0.122-0.589,0.391  C48.435,242.079,48.434,242.088,48.433,242.097z M50.303,229.805c-0.039,0.279,0.152,0.539,0.43,0.589  c0.276,0.042,0.533-0.147,0.575-0.421c0-0.002,0-0.002,0-0.003c0.047-0.278-0.14-0.539-0.418-0.586  c-0.004,0-0.008-0.002-0.012-0.002c-0.276-0.042-0.533,0.147-0.575,0.421C50.303,229.803,50.303,229.803,50.303,229.805  L50.303,229.805z M52.189,217.51c-0.046,0.276,0.137,0.538,0.413,0.59c0.282,0.036,0.541-0.162,0.577-0.444  c0.035-0.269-0.147-0.52-0.415-0.571c-0.27-0.044-0.528,0.138-0.572,0.407C52.19,217.497,52.19,217.504,52.189,217.51L52.189,217.51  z M54.06,205.216c-0.039,0.279,0.152,0.539,0.43,0.587c0.261,0.044,0.508-0.13,0.553-0.39c0.002-0.011,0.003-0.021,0.004-0.031  c0.059-0.263-0.106-0.523-0.368-0.583c-0.015-0.003-0.03-0.005-0.043-0.008c-0.276-0.042-0.533,0.147-0.575,0.421  C54.06,205.214,54.06,205.215,54.06,205.216L54.06,205.216z M96.156,242.483c0.161,0.228,0.477,0.283,0.706,0.122  c0.229-0.161,0.284-0.476,0.122-0.704c-0.005-0.007-0.011-0.015-0.016-0.021c-0.146-0.223-0.446-0.284-0.67-0.138  c-0.011,0.007-0.02,0.013-0.03,0.021C96.049,241.936,96.001,242.249,96.156,242.483L96.156,242.483z M89.034,232.425  c0.161,0.224,0.473,0.276,0.699,0.117c0.228-0.169,0.277-0.488,0.113-0.719c-0.146-0.223-0.446-0.284-0.67-0.138  c-0.011,0.007-0.02,0.013-0.031,0.021C88.926,231.878,88.876,232.191,89.034,232.425L89.034,232.425z M81.913,222.367  c0.157,0.224,0.468,0.279,0.692,0.122c0.003-0.002,0.004-0.003,0.007-0.004c0.222-0.181,0.27-0.5,0.111-0.738  c-0.152-0.217-0.452-0.271-0.67-0.119c-0.009,0.007-0.019,0.013-0.027,0.02C81.797,221.815,81.747,222.136,81.913,222.367  L81.913,222.367z M74.791,212.308c0.157,0.224,0.468,0.279,0.692,0.122c0.003-0.002,0.004-0.003,0.007-0.004  c0.22-0.182,0.268-0.499,0.111-0.738c-0.152-0.217-0.452-0.271-0.671-0.119c-0.009,0.007-0.018,0.014-0.027,0.02  c-0.229,0.158-0.286,0.471-0.127,0.699C74.781,212.295,74.787,212.301,74.791,212.308L74.791,212.308z M32.992,192.762  c0.052,0.259,0.305,0.425,0.564,0.373c0.009-0.002,0.02-0.004,0.03-0.007c0.273-0.066,0.44-0.34,0.374-0.611l0,0  c-0.067-0.272-0.339-0.441-0.612-0.382C33.075,192.211,32.917,192.491,32.992,192.762L32.992,192.762L32.992,192.762z   M37.497,219.33c0.24,0.143,0.552,0.067,0.696-0.172c0.141-0.245,0.069-0.558-0.166-0.716c-0.24-0.145-0.551-0.069-0.695,0.169  c0,0,0,0.002-0.002,0.002C37.19,218.86,37.263,219.171,37.497,219.33L37.497,219.33z M43.798,208.696  c0.222,0.153,0.528,0.097,0.68-0.125c0.007-0.009,0.012-0.019,0.019-0.028c0.141-0.246,0.069-0.558-0.166-0.716  c-0.229-0.147-0.533-0.082-0.68,0.146c-0.005,0.008-0.011,0.018-0.015,0.025C43.493,208.237,43.565,208.545,43.798,208.696  L43.798,208.696z M70.341,248.032c0.072,0.267,0.34,0.433,0.612,0.382c0.268-0.082,0.422-0.358,0.353-0.628  c-0.051-0.265-0.309-0.44-0.577-0.388c-0.007,0.002-0.012,0.003-0.019,0.004C70.436,247.476,70.272,247.756,70.341,248.032  L70.341,248.032z M67.501,235.922c0.055,0.268,0.318,0.442,0.588,0.388c0.269-0.055,0.443-0.317,0.389-0.586  c-0.003-0.011-0.004-0.02-0.007-0.031c-0.044-0.262-0.292-0.437-0.554-0.393c-0.013,0.003-0.027,0.005-0.04,0.009  c-0.268,0.058-0.437,0.322-0.379,0.589C67.497,235.907,67.5,235.913,67.501,235.922L67.501,235.922z M64.664,223.83  c0.051,0.265,0.309,0.44,0.577,0.388c0.007-0.002,0.012-0.003,0.019-0.004c0.276-0.074,0.44-0.354,0.371-0.63  c-0.058-0.269-0.324-0.441-0.596-0.384C64.761,223.274,64.596,223.554,64.664,223.83L64.664,223.83z M61.828,211.738  c0.052,0.259,0.305,0.425,0.564,0.373c0.009-0.002,0.02-0.004,0.03-0.007c0.275-0.069,0.441-0.346,0.371-0.619  c-0.066-0.263-0.327-0.428-0.593-0.377C61.923,211.182,61.758,211.462,61.828,211.738L61.828,211.738z M33.6,211.211  c0.233,0.146,0.54,0.087,0.701-0.135c0.145-0.241,0.08-0.554-0.149-0.719c-0.209-0.154-0.501-0.113-0.658,0.095  c-0.009,0.012-0.018,0.025-0.025,0.039C33.307,210.728,33.366,211.048,33.6,211.211L33.6,211.211z M40.314,200.915  c0.236,0.149,0.548,0.08,0.698-0.153c0.146-0.235,0.082-0.543-0.146-0.7c-0.208-0.156-0.501-0.113-0.657,0.094  c-0.009,0.014-0.019,0.025-0.027,0.04C40.022,200.431,40.081,200.752,40.314,200.915L40.314,200.915z M63.007,252.033  c0.048,0.271,0.308,0.452,0.581,0.405c0.27-0.06,0.445-0.324,0.392-0.597c-0.042-0.276-0.302-0.465-0.577-0.423  c-0.002,0-0.004,0-0.005,0.002C63.122,251.482,62.948,251.755,63.007,252.033L63.007,252.033z M60.67,239.869  c0.051,0.274,0.316,0.455,0.591,0.404c0.003,0,0.005-0.002,0.008-0.002c0.28-0.066,0.453-0.346,0.386-0.625  c-0.063-0.265-0.323-0.437-0.593-0.391C60.787,239.325,60.616,239.594,60.67,239.869L60.67,239.869z M58.331,227.706  c0.051,0.274,0.316,0.455,0.591,0.404c0.003,0,0.005-0.002,0.007-0.002c0.27-0.06,0.445-0.324,0.392-0.597  c-0.048-0.271-0.308-0.452-0.581-0.404C58.468,227.168,58.288,227.43,58.331,227.706L58.331,227.706z M56.01,215.541  c0.036,0.263,0.279,0.446,0.542,0.412c0.013-0.002,0.025-0.004,0.039-0.007c0.27-0.06,0.445-0.324,0.392-0.597  c-0.042-0.267-0.293-0.449-0.561-0.407c-0.007,0.002-0.013,0.003-0.02,0.004c-0.273,0.055-0.449,0.32-0.394,0.593  C56.01,215.538,56.01,215.54,56.01,215.541L56.01,215.541z M53.672,203.379c0.042,0.267,0.293,0.449,0.561,0.407  c0.007-0.002,0.013-0.003,0.019-0.004c0.055-0.009,0.107-0.036,0.147-0.075c0.018-0.003,0.032-0.023,0.066-0.028  c0.22-0.177,0.253-0.499,0.074-0.716c-0.114-0.141-0.296-0.211-0.475-0.182c-0.273,0.055-0.449,0.32-0.394,0.593  C53.672,203.376,53.672,203.377,53.672,203.379L53.672,203.379z M40.295,232.96c-0.055,0.274,0.12,0.539,0.395,0.595  c0.275,0.056,0.541-0.12,0.597-0.394c0.053-0.278-0.122-0.547-0.398-0.61C40.614,232.505,40.35,232.686,40.295,232.96L40.295,232.96  z M42.673,220.793c-0.06,0.275,0.113,0.549,0.39,0.609c0.003,0,0.005,0.002,0.008,0.002c0.272,0.046,0.53-0.135,0.577-0.406  c0.05-0.276-0.125-0.543-0.398-0.61c-0.268-0.05-0.525,0.127-0.575,0.396C42.675,220.785,42.673,220.789,42.673,220.793  L42.673,220.793z M45.036,208.646c-0.053,0.272,0.122,0.536,0.395,0.593c0.266,0.06,0.531-0.106,0.592-0.372  c0.002-0.007,0.003-0.014,0.004-0.02c0.053-0.278-0.122-0.547-0.398-0.61C45.352,208.188,45.087,208.37,45.036,208.646  L45.036,208.646z M83.333,236.698c0.152,0.229,0.461,0.292,0.691,0.141c0.004-0.003,0.007-0.004,0.011-0.007  c0.226-0.161,0.285-0.472,0.133-0.704c-0.131-0.228-0.424-0.307-0.652-0.177c-0.012,0.007-0.023,0.013-0.035,0.021  C83.241,236.134,83.175,236.456,83.333,236.698L83.333,236.698z M76.649,226.379c0.152,0.229,0.461,0.292,0.691,0.141  c0.004-0.003,0.007-0.004,0.011-0.007c0.226-0.161,0.285-0.472,0.133-0.704c-0.131-0.228-0.424-0.307-0.652-0.177  c-0.012,0.007-0.023,0.014-0.035,0.021C76.557,225.814,76.492,226.139,76.649,226.379L76.649,226.379z M69.966,216.061  c0.152,0.229,0.461,0.292,0.691,0.141c0.004-0.003,0.007-0.004,0.011-0.007c0.226-0.161,0.285-0.472,0.133-0.704  c-0.142-0.23-0.445-0.303-0.676-0.161c-0.004,0.003-0.007,0.004-0.011,0.007C69.873,215.497,69.808,215.82,69.966,216.061  L69.966,216.061z M63.283,205.742c0.156,0.23,0.469,0.291,0.701,0.135l0.002-0.002c0.226-0.161,0.285-0.472,0.133-0.704  c-0.15-0.228-0.453-0.296-0.687-0.154C63.193,205.181,63.128,205.501,63.283,205.742L63.283,205.742z M35.344,205.284  c0.197,0.078,0.419-0.019,0.497-0.214c0.076-0.198-0.015-0.423-0.209-0.511c-0.186-0.076-0.398,0.014-0.474,0.198  c-0.002,0.005-0.004,0.009-0.005,0.015C35.071,204.965,35.155,205.188,35.344,205.284L35.344,205.284z M38.733,196.597  c0.186,0.076,0.398-0.013,0.474-0.198c0.002-0.004,0.004-0.009,0.005-0.015c0.083-0.198-0.011-0.426-0.209-0.511  c-0.185-0.074-0.394,0.018-0.468,0.201c-0.004,0.009-0.007,0.019-0.009,0.028c-0.082,0.188,0.004,0.406,0.194,0.488  C38.724,196.594,38.728,196.595,38.733,196.597L38.733,196.597z M63.266,230.628c0.074,0.189,0.288,0.283,0.477,0.209  c0.008-0.003,0.016-0.007,0.023-0.009c0.186-0.089,0.272-0.306,0.197-0.496c-0.064-0.185-0.268-0.283-0.454-0.219  c-0.016,0.005-0.031,0.012-0.046,0.02C63.275,230.221,63.189,230.438,63.266,230.628L63.266,230.628z M59.692,222.049  c0.083,0.192,0.307,0.281,0.5,0.2c0.19-0.094,0.275-0.319,0.194-0.515c-0.074-0.189-0.288-0.283-0.477-0.209  c-0.008,0.003-0.016,0.007-0.023,0.009C59.694,221.628,59.61,221.854,59.692,222.049L59.692,222.049z M56.115,213.452  c0.083,0.192,0.307,0.281,0.5,0.2c0.19-0.094,0.275-0.319,0.194-0.515c-0.083-0.192-0.307-0.281-0.5-0.2  C56.119,213.032,56.033,213.257,56.115,213.452L56.115,213.452z M52.538,204.856c0.069,0.185,0.276,0.279,0.461,0.211  c0.008-0.003,0.015-0.005,0.023-0.009c0.202-0.072,0.305-0.294,0.234-0.495c-0.072-0.201-0.295-0.304-0.496-0.234  c-0.202,0.072-0.305,0.294-0.234,0.495C52.529,204.834,52.533,204.845,52.538,204.856z M31.548,196.23  c0.07-0.117,0.071-0.262,0.002-0.379C31.541,195.978,31.54,196.105,31.548,196.23L31.548,196.23z M43.994,229.694  c0.004,0.209,0.175,0.377,0.385,0.378c0.206-0.018,0.366-0.189,0.367-0.396c0-0.209-0.169-0.378-0.379-0.378  c-0.002,0-0.003,0-0.004,0c-0.205,0-0.368,0.165-0.368,0.369C43.992,229.675,43.992,229.684,43.994,229.694L43.994,229.694z   M43.874,220.333c0.005,0.212,0.173,0.385,0.386,0.396c0.21-0.007,0.375-0.182,0.367-0.393c0-0.002,0-0.002,0-0.003  c0.008-0.202-0.15-0.373-0.352-0.381c-0.004,0-0.009,0-0.013,0c-0.21-0.004-0.383,0.163-0.387,0.373  C43.874,220.329,43.874,220.332,43.874,220.333L43.874,220.333z M43.774,210.99c-0.002,0.208,0.165,0.377,0.374,0.379  s0.378-0.165,0.38-0.373c0-0.002,0-0.004,0-0.005c-0.005-0.212-0.173-0.385-0.386-0.396c-0.21,0.007-0.375,0.182-0.367,0.393  C43.774,210.988,43.774,210.989,43.774,210.99L43.774,210.99z M43.657,201.649c0,0.209,0.169,0.378,0.379,0.378  c0.002,0,0.003,0,0.004,0c0.205,0,0.368-0.165,0.368-0.369c0-0.009,0-0.018-0.002-0.027c0.004-0.207-0.159-0.377-0.366-0.381  c0,0,0,0-0.002,0C43.829,201.262,43.66,201.436,43.657,201.649L43.657,201.649z M76.185,216.15c0.134,0.143,0.362,0.152,0.505,0.018  c0.007-0.007,0.013-0.013,0.02-0.02c0.153-0.15,0.156-0.396,0.005-0.549c-0.003-0.003-0.007-0.007-0.009-0.009  c-0.138-0.14-0.363-0.14-0.502-0.002c-0.007,0.007-0.013,0.015-0.02,0.021C76.034,215.759,76.035,216.001,76.185,216.15  L76.185,216.15z M69.679,209.628c0.15,0.142,0.389,0.137,0.531-0.012c0.003-0.004,0.007-0.007,0.009-0.011  c0.14-0.154,0.138-0.388-0.003-0.54c-0.153-0.142-0.392-0.141-0.544,0.005C69.536,209.231,69.537,209.47,69.679,209.628  L69.679,209.628z M63.189,203.087c0.134,0.143,0.362,0.152,0.505,0.018c0.007-0.007,0.013-0.014,0.02-0.02  c0.14-0.154,0.138-0.389-0.003-0.54c-0.134-0.149-0.364-0.159-0.513-0.024c-0.011,0.009-0.02,0.019-0.03,0.03  C63.025,202.704,63.034,202.944,63.189,203.087L63.189,203.087z M41.711,209.083c0.015,0.115,0.119,0.196,0.236,0.182  c0.117-0.028,0.193-0.141,0.174-0.259c-0.031-0.108-0.137-0.179-0.25-0.162C41.765,208.871,41.695,208.974,41.711,209.083  L41.711,209.083z M40.861,204.065c0.016,0.107,0.115,0.182,0.225,0.166c0.003,0,0.005-0.002,0.008-0.002  c0.105-0.014,0.18-0.11,0.165-0.214c-0.002-0.008-0.003-0.016-0.005-0.025c-0.008-0.111-0.106-0.193-0.217-0.185  c-0.007,0-0.012,0.002-0.019,0.003C40.909,203.844,40.843,203.952,40.861,204.065L40.861,204.065z M40.007,199.03  c0.008,0.111,0.106,0.195,0.217,0.185c0.005,0,0.012-0.002,0.018-0.003c0.113-0.03,0.183-0.143,0.158-0.257  c-0.016-0.107-0.117-0.182-0.225-0.166c-0.003,0-0.005,0.002-0.008,0.002c-0.11,0.02-0.182,0.126-0.161,0.236  C40.007,199.027,40.007,199.029,40.007,199.03L40.007,199.03z M32.526,201.032c-0.023,0.111,0.046,0.22,0.156,0.248  c0.115,0.02,0.228-0.05,0.258-0.163c0.023-0.111-0.046-0.22-0.156-0.248C32.671,200.852,32.562,200.922,32.526,201.032z   M33.609,196.045c-0.023,0.111,0.046,0.22,0.156,0.248c0.107,0.032,0.221-0.03,0.253-0.137c0.003-0.008,0.004-0.018,0.005-0.025  c0.023-0.111-0.046-0.22-0.156-0.248C33.753,195.866,33.645,195.935,33.609,196.045L33.609,196.045z M50.216,202.968  c0.053,0.094,0.172,0.126,0.266,0.074c0.003-0.002,0.004-0.003,0.007-0.004c0.098-0.066,0.127-0.197,0.064-0.297  c-0.051-0.092-0.166-0.127-0.261-0.076c-0.004,0.003-0.008,0.004-0.012,0.007C50.182,202.736,50.153,202.868,50.216,202.968  L50.216,202.968z M47.549,198.66c0.058,0.098,0.185,0.13,0.281,0.072c0.003-0.002,0.005-0.004,0.008-0.005  c0.091-0.07,0.118-0.196,0.064-0.297c-0.062-0.099-0.194-0.129-0.292-0.066c-0.099,0.062-0.129,0.193-0.066,0.291  C47.546,198.656,47.547,198.657,47.549,198.66L47.549,198.66z M47.519,217.327c0.098,0.154,0.303,0.201,0.457,0.103  c0.004-0.003,0.008-0.005,0.011-0.008c0.153-0.094,0.202-0.294,0.107-0.446c-0.004-0.007-0.008-0.012-0.012-0.018  c-0.078-0.153-0.267-0.214-0.419-0.135c-0.012,0.005-0.023,0.014-0.034,0.02c-0.164,0.099-0.215,0.312-0.115,0.476  C47.515,217.32,47.517,217.323,47.519,217.327L47.519,217.327z M43.154,210.159c0.078,0.153,0.267,0.214,0.419,0.135  c0.012-0.005,0.023-0.013,0.034-0.02c0.163-0.099,0.215-0.312,0.115-0.476c-0.002-0.003-0.004-0.005-0.005-0.009  c-0.095-0.161-0.304-0.213-0.463-0.118c-0.003,0.002-0.004,0.003-0.007,0.004c-0.158,0.106-0.202,0.319-0.095,0.478  C43.151,210.155,43.153,210.156,43.154,210.159L43.154,210.159z M38.772,203.011c0.099,0.159,0.309,0.211,0.47,0.113  c0.164-0.103,0.214-0.32,0.11-0.484c-0.095-0.161-0.304-0.213-0.463-0.118c-0.003,0.002-0.004,0.003-0.007,0.004  C38.726,202.634,38.677,202.845,38.772,203.011L38.772,203.011z M34.41,195.86c0.105,0.153,0.308,0.202,0.47,0.113  c0.154-0.11,0.202-0.319,0.11-0.484c-0.088-0.158-0.291-0.216-0.449-0.126c-0.008,0.004-0.015,0.008-0.021,0.013  C34.358,195.482,34.312,195.696,34.41,195.86L34.41,195.86z M56.81,202.462c0.143,0.11,0.351,0.083,0.461-0.062  c0.007-0.008,0.012-0.016,0.018-0.025c0.106-0.154,0.07-0.365-0.082-0.474c-0.14-0.11-0.344-0.087-0.454,0.052  c-0.004,0.004-0.007,0.009-0.009,0.013C56.632,202.124,56.662,202.339,56.81,202.462L56.81,202.462z"/>
<linearGradient id="sweater-2_1_-i6" gradientUnits="userSpaceOnUse" x1="3976.458" y1="1856.7101" x2="4581.8237" y2="4042.7515" gradientTransform="matrix(0.0741 0 0 0.0741 -230.5491 -49.4972)">
	<stop offset="0" style="stop-color:#23286B"/>
	<stop offset="1" style="stop-color:#151A4F"/>
</linearGradient>
<path id="sweater-2-i6" fill="url(#sweater-2_1_-i6)" d="M150.074,81.497L78.332,204.129c-26.326-1.617-77.38-27.076-77.38-27.076  c-5.677-30.783,15.24-42.288,31.159-52.322s16.468-22.459,44.724-38.686c17.852-10.067,36.874-17.913,56.641-23.367  C140.204,83.417,150.074,81.497,150.074,81.497z"/>
<linearGradient id="R_hand-3_1_-i6" gradientUnits="userSpaceOnUse" x1="5885.7988" y1="3784.5933" x2="7457.9966" y2="4103.7031" gradientTransform="matrix(0.0741 0 0 0.0741 -230.5491 -49.4972)">
	<stop offset="0" style="stop-color:#FFBEB6"/>
	<stop offset="0.5136" style="stop-color:#F8AFA9"/>
	<stop offset="1" style="stop-color:#F2A19C"/>
</linearGradient>
<path id="R_hand-3-i6" fill="url(#R_hand-3_1_-i6)" d="M171.568,216.696c0,0,14.934,10.352,27.059,14.331  c12.125,3.978,13.056,3.001,17.642-2.254c4.17-4.975,7.877-10.318,11.075-15.964c1.351-2.619,5.477-2.733,4.597,4.051  c-0.88,6.783-9.893,10.666-6.17,14.13c3.724,3.464,16.688,4.157,26.382,3.618s14.98-0.516,6.55,11.774  c-8.429,12.29-18.642,19.536-45.893,7.961c-27.251-11.575-46.495-9.522-56.066-8.585L171.568,216.696z"/>
<path id="R_sleeve-i6" fill="#23286B" d="M149.553,81.561c0,0-11.322,36.637-10.972,61.422c0.35,24.785,4.869,29.028,24.375,36.253  c19.507,7.226,24.007,7.529,24.007,7.529l-20.503,78.382c0,0-21.342,3.609-36.522-13.801c-15.18-17.41-21.127-21.893-31.762-26.001  s-31.999-19.541-24.53-56.594c7.469-37.052,22.839-69.885,59.834-106.073l0,0"/>
<linearGradient id="neck-2_1_-i6" gradientUnits="userSpaceOnUse" x1="4585.8389" y1="2148.3022" x2="5241.7891" y2="1389.6136" gradientTransform="matrix(0.0741 0 0 0.0741 -230.5491 -49.4972)">
	<stop offset="0" style="stop-color:#FFBEB6"/>
	<stop offset="1" style="stop-color:#F2A19C"/>
</linearGradient>
<path id="neck-2-i6" fill="url(#neck-2_1_-i6)" d="M163.338,57.803c0,0-11.717,12.53-13.268,23.691c0,0-9.868,1.922-16.59-18.816  c4.931-4.213,9.267-9.072,12.89-14.446L163.338,57.803z"/>
<path id="face-2-i6" fill="#FFBEB6" d="M194.849,48.82c1.238,5.966,2.636,9.976-7.355,9.372c0,0-19.605,22.66-41.509-3.634  c0,0-0.43-0.617-1.102-1.689c1.366,1.09,2.96,1.86,4.666,2.253c0,0,4.733-6.356,0.174-10.432c-4.558-4.076-7.624-9.855-2.313-13.69  c5.325-3.835,6.131,3.392,11.994,2.547c5.877-0.844,12.693-8.045,12.693-8.045c4.576,3.501,9.745,6.153,15.261,7.83  c2.667,1.082,5.49,1.724,8.364,1.904l0.08,0.161C195.804,35.398,193.625,42.853,194.849,48.82z"/>
<path id="hair-2-i6" fill="#23286B" d="M223.103,15.656c-3.021,9.048-10.546,15.877-19.865,18.023  c7.394-2.183,14.746-8.315,20.322-21.69L130.966,0c0,0-5.492,14.269-1.59,29.198c3.902,14.929,15.243,25.209,20.175,25.927  c0,0,4.73-6.359,0.173-10.437s-7.633-9.855-2.315-13.686s6.13,3.394,11.998,2.545c5.868-0.849,12.695-8.045,12.695-8.045  c4.576,3.501,9.746,6.154,15.261,7.833c14.172,5.736,31.038-1.321,36.71-17.414C224.29,15.311,223.316,15.048,223.103,15.656z"/>
<path id="eyeglasses-i6" fill="#3E8AF8" d="M203.386,48.941c2.296-3.332,2.431-7.845,0.307-10.067v-0.002  c-2.128-2.216-5.728-1.31-8.024,2.022c-0.265,0.388-0.504,0.794-0.714,1.214c-1.54-0.882-3.413-0.971-5.03-0.237  c0.025-0.24,0.072-0.48,0.08-0.72c0.174-1.963-0.453-3.914-1.741-5.409c-2.462-2.565-6.631-1.507-9.293,2.356  c-1.275,1.846-2.005,4.012-2.109,6.251c-0.106,1.57,0.257,3.138,1.042,4.503c0.201,0.326,0.435,0.629,0.699,0.906  c1.182,1.252,2.974,1.728,4.624,1.227c1.933-0.606,3.586-1.876,4.668-3.582c0.886-1.299,1.511-2.759,1.839-4.296  c1.506-0.535,3.382-1.018,4.778,0.02c-0.034,0.09-0.058,0.181-0.089,0.272c0.009,0.106-0.008,0.212-0.05,0.31  c-0.005,0.011-0.008,0.021-0.013,0.032c-0.002,0.013,0.003,0.023,0.002,0.036c-0.241,1.418-0.226,2.865,0.044,4.277  c0.147,0.605,0.336,1.193,0.525,1.782c0.052,0.131,0.086,0.275,0.13,0.41c0.06,0.188,0.12,0.374,0.178,0.563  c0.042,0.051,0.074,0.108,0.119,0.156C197.491,53.179,201.091,52.272,203.386,48.941z M187.196,46.67  c-0.959,1.519-2.426,2.651-4.14,3.194c-1.365,0.425-2.853,0.042-3.842-0.989c-1.063-1.247-1.577-2.869-1.424-4.499  c0.095-1.987,0.746-3.908,1.881-5.546c2.328-3.379,5.909-4.367,7.982-2.204c0.214,0.223,0.402,0.468,0.564,0.729  c0.653,1.143,0.952,2.455,0.86,3.769C188.983,43.112,188.331,45.033,187.196,46.67z M195.971,50.079  c-1.744-1.821-1.562-5.606,0.398-8.45c1.961-2.845,4.972-3.685,6.713-1.871c1.747,1.819,1.562,5.609-0.398,8.451  C200.725,51.054,197.713,51.893,195.971,50.079z"/>

            </g>
        </g>
    </g>
    
</svg>